<svg width="314" height="102" viewBox="0 0 314 102" fill="none" xmlns="http://www.w3.org/2000/svg">
<path d="M23.952 29.048H11.376L9.36 35H0.768L12.96 1.304H22.464L34.656 35H25.968L23.952 29.048ZM21.84 22.712L17.664 10.376L13.536 22.712H21.84ZM58.7666 17.72C60.7186 18.136 62.2866 19.112 63.4706 20.648C64.6546 22.152 65.2466 23.88 65.2466 25.832C65.2466 28.648 64.2546 30.888 62.2706 32.552C60.3186 34.184 57.5826 35 54.0626 35H38.3666V1.304H53.5346C56.9586 1.304 59.6306 2.088 61.5506 3.656C63.5026 5.224 64.4786 7.352 64.4786 10.04C64.4786 12.024 63.9506 13.672 62.8946 14.984C61.8706 16.296 60.4946 17.208 58.7666 17.72ZM46.5746 14.936H51.9506C53.2946 14.936 54.3186 14.648 55.0226 14.072C55.7586 13.464 56.1266 12.584 56.1266 11.432C56.1266 10.28 55.7586 9.4 55.0226 8.792C54.3186 8.184 53.2946 7.88 51.9506 7.88H46.5746V14.936ZM52.6226 28.376C53.9986 28.376 55.0546 28.072 55.7906 27.464C56.5586 26.824 56.9426 25.912 56.9426 24.728C56.9426 23.544 56.5426 22.616 55.7426 21.944C54.9746 21.272 53.9026 20.936 52.5266 20.936H46.5746V28.376H52.6226ZM85.9433 35.336C82.7753 35.336 79.8633 34.6 77.2073 33.128C74.5833 31.656 72.4873 29.608 70.9193 26.984C69.3832 24.328 68.6152 21.352 68.6152 18.056C68.6152 14.76 69.3832 11.8 70.9193 9.176C72.4873 6.552 74.5833 4.504 77.2073 3.032C79.8633 1.56 82.7753 0.823999 85.9433 0.823999C89.1113 0.823999 92.0073 1.56 94.6313 3.032C97.2873 4.504 99.3673 6.552 100.871 9.176C102.407 11.8 103.175 14.76 103.175 18.056C103.175 21.352 102.407 24.328 100.871 26.984C99.3353 29.608 97.2553 31.656 94.6313 33.128C92.0073 34.6 89.1113 35.336 85.9433 35.336ZM85.9433 27.848C88.6313 27.848 90.7753 26.952 92.3752 25.16C94.0073 23.368 94.8233 21 94.8233 18.056C94.8233 15.08 94.0073 12.712 92.3752 10.952C90.7753 9.16 88.6313 8.264 85.9433 8.264C83.2233 8.264 81.0473 9.144 79.4153 10.904C77.8153 12.664 77.0153 15.048 77.0153 18.056C77.0153 21.032 77.8153 23.416 79.4153 25.208C81.0473 26.968 83.2233 27.848 85.9433 27.848ZM115.806 1.304V21.464C115.806 23.48 116.302 25.032 117.294 26.12C118.286 27.208 119.742 27.752 121.662 27.752C123.582 27.752 125.054 27.208 126.078 26.12C127.102 25.032 127.614 23.48 127.614 21.464V1.304H135.822V21.416C135.822 24.424 135.182 26.968 133.902 29.048C132.622 31.128 130.894 32.696 128.718 33.752C126.574 34.808 124.174 35.336 121.518 35.336C118.862 35.336 116.478 34.824 114.366 33.8C112.286 32.744 110.638 31.176 109.422 29.096C108.206 26.984 107.598 24.424 107.598 21.416V1.304H115.806ZM165.825 1.304V7.88H156.897V35H148.689V7.88H139.761V1.304H165.825Z" fill="#26076C"/>
<path d="M24.288 67.544V71.096H15.168V101H10.8V71.096H1.632V67.544H24.288ZM55.4408 67.544V101H51.0728V85.832H34.0328V101H29.6648V67.544H34.0328V82.232H51.0728V67.544H55.4408ZM67.2671 71.096V82.28H79.4591V85.88H67.2671V97.4H80.8991V101H62.8991V67.496H80.8991V71.096H67.2671Z" fill="black"/>
<path d="M125.265 78.152C125.265 80.104 124.817 81.896 123.921 83.528C123.025 85.128 121.649 86.424 119.793 87.416C117.937 88.408 115.633 88.904 112.881 88.904H107.793V101H99.5854V67.304H112.881C115.569 67.304 117.841 67.768 119.697 68.696C121.553 69.624 122.945 70.904 123.873 72.536C124.801 74.168 125.265 76.04 125.265 78.152ZM112.257 82.376C113.825 82.376 114.993 82.008 115.761 81.272C116.529 80.536 116.913 79.496 116.913 78.152C116.913 76.808 116.529 75.768 115.761 75.032C114.993 74.296 113.825 73.928 112.257 73.928H107.793V82.376H112.257ZM146.723 101L139.715 88.28H137.747V101H129.539V67.304H143.315C145.971 67.304 148.227 67.768 150.083 68.696C151.971 69.624 153.379 70.904 154.307 72.536C155.235 74.136 155.699 75.928 155.699 77.912C155.699 80.152 155.059 82.152 153.779 83.912C152.531 85.672 150.675 86.92 148.211 87.656L155.987 101H146.723ZM137.747 82.472H142.835C144.339 82.472 145.459 82.104 146.195 81.368C146.963 80.632 147.347 79.592 147.347 78.248C147.347 76.968 146.963 75.96 146.195 75.224C145.459 74.488 144.339 74.12 142.835 74.12H137.747V82.472ZM176.787 101.336C173.619 101.336 170.707 100.6 168.051 99.128C165.427 97.656 163.331 95.608 161.763 92.984C160.227 90.328 159.459 87.352 159.459 84.056C159.459 80.76 160.227 77.8 161.763 75.176C163.331 72.552 165.427 70.504 168.051 69.032C170.707 67.56 173.619 66.824 176.787 66.824C179.955 66.824 182.851 67.56 185.475 69.032C188.131 70.504 190.211 72.552 191.715 75.176C193.251 77.8 194.019 80.76 194.019 84.056C194.019 87.352 193.251 90.328 191.715 92.984C190.179 95.608 188.099 97.656 185.475 99.128C182.851 100.6 179.955 101.336 176.787 101.336ZM176.787 93.848C179.475 93.848 181.619 92.952 183.219 91.16C184.851 89.368 185.667 87 185.667 84.056C185.667 81.08 184.851 78.712 183.219 76.952C181.619 75.16 179.475 74.264 176.787 74.264C174.067 74.264 171.891 75.144 170.259 76.904C168.659 78.664 167.859 81.048 167.859 84.056C167.859 87.032 168.659 89.416 170.259 91.208C171.891 92.968 174.067 93.848 176.787 93.848ZM219.705 67.304V90.248C219.705 93.8 218.697 96.536 216.681 98.456C214.697 100.376 212.009 101.336 208.617 101.336C205.065 101.336 202.217 100.328 200.073 98.312C197.929 96.296 196.857 93.432 196.857 89.72H205.017C205.017 91.128 205.305 92.2 205.881 92.936C206.457 93.64 207.289 93.992 208.377 93.992C209.369 93.992 210.137 93.672 210.681 93.032C211.225 92.392 211.497 91.464 211.497 90.248V67.304H219.705ZM234.543 73.88V80.696H245.535V87.032H234.543V94.424H246.975V101H226.335V67.304H246.975V73.88H234.543ZM250.912 84.104C250.912 80.776 251.632 77.816 253.072 75.224C254.512 72.6 256.512 70.568 259.072 69.128C261.664 67.656 264.592 66.92 267.856 66.92C271.856 66.92 275.28 67.976 278.128 70.088C280.976 72.2 282.88 75.08 283.84 78.728H274.816C274.144 77.32 273.184 76.248 271.936 75.512C270.72 74.776 269.328 74.408 267.76 74.408C265.232 74.408 263.184 75.288 261.616 77.048C260.048 78.808 259.264 81.16 259.264 84.104C259.264 87.048 260.048 89.4 261.616 91.16C263.184 92.92 265.232 93.8 267.76 93.8C269.328 93.8 270.72 93.432 271.936 92.696C273.184 91.96 274.144 90.888 274.816 89.48H283.84C282.88 93.128 280.976 96.008 278.128 98.12C275.28 100.2 271.856 101.24 267.856 101.24C264.592 101.24 261.664 100.52 259.072 99.08C256.512 97.608 254.512 95.576 253.072 92.984C251.632 90.392 250.912 87.432 250.912 84.104ZM313.107 67.304V73.88H304.179V101H295.971V73.88H287.043V67.304H313.107Z" fill="#F72585"/>
</svg>
