<svg width="14" height="369" viewBox="0 0 14 369" fill="none" xmlns="http://www.w3.org/2000/svg">
<path fill-rule="evenodd" clip-rule="evenodd" d="M0 7C0 3.13401 3.13401 0 7 0C10.866 0 14 3.13401 14 7.00001V133.379C14 140.558 4.48268 143.085 0.921848 136.852C0.317747 135.794 0 134.597 0 133.38V7ZM0 145.37C0 144.327 1.38292 143.96 1.90033 144.866L13.8661 165.812C13.9538 165.965 14 166.139 14 166.316C14 167.359 12.6171 167.727 12.0997 166.821L0.13395 145.875C0.0461704 145.721 0 145.547 0 145.37ZM1.84649 155.173C1.34374 154.293 0 154.65 0 155.664C0 155.836 0.0448617 156.005 0.130154 156.154L12.1535 177.201C12.6563 178.081 14 177.724 14 176.711C14 176.539 13.9551 176.37 13.8698 176.221L1.84649 155.173ZM14 238.611C14 231.624 4.88708 228.949 1.11048 234.828C0.385452 235.957 0 237.27 0 238.611V362C0 365.866 3.13401 369 7 369C10.866 369 14 365.866 14 362V238.611ZM11.7007 205.503C8.27241 210.84 0 208.412 0 202.069C0 195.552 8.6395 193.258 11.8719 198.917C13.0463 200.973 12.9804 203.511 11.7007 205.503Z" fill="#26076C"/>
</svg>
