<svg width="1324" height="1213" viewBox="0 0 1324 1213" fill="none" xmlns="http://www.w3.org/2000/svg">
<g filter="url(#filter0_d_796_2)">
<path d="M287.715 483.414C167.438 387.593 155.077 190.13 281.107 102.011L844.455 -291.876C913.508 -340.158 1005 -340.677 1072.33 -290.027C1300.97 -118.042 1784.05 278.613 1631.01 454.948C1432.66 683.477 1488.56 613.611 1241.57 694.888C1162.87 720.787 1083.91 778.874 1012.85 846.007C889.166 962.853 651.261 936.835 561.461 792.316C534.574 749.045 504.951 705.85 472.736 665.001C418.811 596.622 352.94 535.376 287.715 483.414Z" fill="url(#paint0_linear_796_2)" fill-opacity="0.2" shape-rendering="crispEdges"/>
</g>
<g filter="url(#filter1_d_796_2)">
<path d="M283.316 228.847C213.169 91.997 283.22 -93.0357 434.355 -121.437L1109.92 -248.39C1192.73 -263.951 1276.32 -226.75 1316.82 -152.865C1454.35 98.0149 1731.23 658.408 1519.14 756.074C1244.29 882.648 1324 842 1065.45 814.354C983.068 805.545 887.195 825.964 794.794 857.878C633.97 913.424 427.887 791.746 405.567 623.069C398.885 572.566 389.677 521.005 377.143 470.514C356.161 385.995 321.355 303.058 283.316 228.847Z" fill="url(#paint1_linear_796_2)"/>
</g>
<defs>
<filter id="filter0_d_796_2" x="91.909" y="-424.052" width="1668.5" height="1447.49" filterUnits="userSpaceOnUse" color-interpolation-filters="sRGB">
<feFlood flood-opacity="0" result="BackgroundImageFix"/>
<feColorMatrix in="SourceAlpha" type="matrix" values="0 0 0 0 0 0 0 0 0 0 0 0 0 0 0 0 0 0 127 0" result="hardAlpha"/>
<feOffset dy="4"/>
<feGaussianBlur stdDeviation="50"/>
<feComposite in2="hardAlpha" operator="out"/>
<feColorMatrix type="matrix" values="0 0 0 0 0.8 0 0 0 0 0.8 0 0 0 0 0.8 0 0 0 0.25 0"/>
<feBlend mode="normal" in2="BackgroundImageFix" result="effect1_dropShadow_796_2"/>
<feBlend mode="normal" in="SourceGraphic" in2="effect1_dropShadow_796_2" result="shape"/>
</filter>
<filter id="filter1_d_796_2" x="155.985" y="-347.885" width="1540.47" height="1323.37" filterUnits="userSpaceOnUse" color-interpolation-filters="sRGB">
<feFlood flood-opacity="0" result="BackgroundImageFix"/>
<feColorMatrix in="SourceAlpha" type="matrix" values="0 0 0 0 0 0 0 0 0 0 0 0 0 0 0 0 0 0 127 0" result="hardAlpha"/>
<feOffset dy="4"/>
<feGaussianBlur stdDeviation="50"/>
<feComposite in2="hardAlpha" operator="out"/>
<feColorMatrix type="matrix" values="0 0 0 0 0.8 0 0 0 0 0.8 0 0 0 0 0.8 0 0 0 0.25 0"/>
<feBlend mode="normal" in2="BackgroundImageFix" result="effect1_dropShadow_796_2"/>
<feBlend mode="normal" in="SourceGraphic" in2="effect1_dropShadow_796_2" result="shape"/>
</filter>
<linearGradient id="paint0_linear_796_2" x1="81.951" y1="293.897" x2="1624.93" y2="507.603" gradientUnits="userSpaceOnUse">
<stop stop-color="#FAB2FF"/>
<stop offset="1" stop-color="#1904E5"/>
</linearGradient>
<linearGradient id="paint1_linear_796_2" x1="173.851" y1="-28.5884" x2="1491.93" y2="801.556" gradientUnits="userSpaceOnUse">
<stop stop-color="#FAB2FF"/>
<stop offset="1" stop-color="#1904E5"/>
</linearGradient>
</defs>
</svg>
