<svg width="820" height="820" viewBox="0 0 820 820" fill="none" xmlns="http://www.w3.org/2000/svg">
<path d="M210.276 512.591L209.447 511.727L214.654 506.758L215.483 507.623L210.276 512.591ZM220.675 502.628L219.832 501.774C221.523 500.106 223.222 498.389 224.878 496.665L225.742 497.493C224.079 499.227 222.374 500.954 220.675 502.628ZM230.671 492.225L229.783 491.417C231.374 489.67 232.976 487.861 234.548 486.041L235.454 486.828C233.877 488.652 232.268 490.469 230.671 492.225ZM240.101 481.31L239.174 480.549C240.671 478.725 242.182 476.836 243.663 474.943L244.607 475.678C243.12 477.584 241.604 479.476 240.101 481.31ZM248.978 469.944L248.017 469.226C249.426 467.334 250.846 465.38 252.24 463.416L253.217 464.108C251.818 466.082 250.393 468.042 248.978 469.944ZM257.327 458.187L256.333 457.513C257.676 455.529 259.002 453.533 260.304 451.524L261.309 452.173C260.002 454.189 258.675 456.198 257.327 458.187ZM323.052 449.869C320.838 449.869 318.645 449.449 316.587 448.636L317.033 447.524C318.948 448.278 320.99 448.669 323.052 448.669C323.35 448.639 323.572 448.662 323.829 448.649L323.887 449.85C323.606 449.863 323.276 449.843 323.052 449.869ZM331.016 447.816L330.417 446.779C332.41 445.622 334.063 443.954 335.201 441.948L336.241 442.542C334.999 444.733 333.194 446.551 331.016 447.816ZM265.17 446.087L264.151 445.453C265.412 443.421 266.655 441.371 267.881 439.309L268.912 439.924C267.684 441.989 266.436 444.046 265.17 446.087ZM310.509 444.415C308.838 442.588 307.498 440.483 306.56 438.191L307.667 437.727C308.551 439.89 309.81 441.876 311.388 443.599L310.509 444.415ZM338.228 435.395L337.028 435.368L337.031 435.047C337.041 433.294 336.679 431.559 335.973 429.955C335.791 429.555 335.594 429.164 335.376 428.784L336.419 428.192C336.654 428.605 336.869 429.028 337.067 429.461C337.845 431.221 338.241 433.125 338.232 435.047L338.228 435.395ZM273.014 434.137L272.094 433.366C273.657 431.503 275.367 429.766 277.206 428.172L277.991 429.081C276.2 430.632 274.536 432.323 273.014 434.137ZM304.705 431.09C304.567 429.938 304.498 428.777 304.498 427.616C304.498 426.329 304.58 425.041 304.743 423.764L305.933 423.913C305.778 425.141 305.699 426.378 305.699 427.616C305.699 428.728 305.763 429.842 305.896 430.947L304.705 431.09ZM283.71 424.882L283.078 423.86C285.145 422.583 287.306 421.461 289.538 420.502L290.012 421.604C287.834 422.54 285.727 423.637 283.71 424.882ZM330.765 423.642C328.882 422.237 326.82 421.09 324.636 420.233L325.084 419.116C327.37 420.016 329.522 421.217 331.49 422.689L330.765 423.642ZM296.725 419.264L296.408 418.106C298.752 417.468 301.138 416.999 303.547 416.697L303.696 417.888C301.343 418.179 299.014 418.642 296.725 419.264ZM317.841 418.268C315.513 417.832 313.156 417.583 310.789 417.53L310.819 416.33C313.251 416.385 315.673 416.641 318.066 417.091L317.841 418.268ZM307.59 417.058L306.46 416.651C307.288 414.352 308.351 412.144 309.625 410.063L310.65 410.691C309.415 412.704 308.39 414.837 307.59 417.058ZM314.922 405.063L314.045 404.246C314.393 403.869 314.75 403.498 315.117 403.137C316.487 401.784 317.953 400.536 319.508 399.401L320.216 400.371C318.711 401.47 317.286 402.68 315.959 403.99C315.605 404.341 315.26 404.699 314.922 405.063ZM326.278 396.695L325.745 395.623C327.923 394.544 330.189 393.642 332.518 392.93L332.866 394.078C330.602 394.77 328.398 395.646 326.278 396.695ZM339.808 392.289L339.512 391.129C341.858 390.527 344.191 389.898 346.448 389.26L346.773 390.413C344.506 391.054 342.166 391.687 339.808 392.289ZM353.687 388.345L353.326 387.2C355.642 386.472 357.935 385.714 360.142 384.943L360.534 386.075C358.317 386.849 356.012 387.613 353.687 388.345ZM367.309 383.582L366.876 382.464C369.123 381.593 371.356 380.678 373.516 379.744L373.99 380.847C371.819 381.783 369.569 382.705 367.309 383.582ZM380.562 377.855L380.045 376.776L386.516 373.631L387.04 374.711L380.562 377.855ZM393.514 371.562L392.991 370.483L399.464 367.339L399.987 368.419L393.514 371.562ZM406.462 365.271L405.936 364.191L412.41 361.044L412.934 362.123L406.462 365.271ZM419.408 358.975L418.884 357.896L425.358 354.751L425.881 355.83L419.408 358.975ZM432.353 352.683L431.83 351.604L438.304 348.457L438.828 349.536L432.353 352.683Z" fill="#9192FF"/>
<path d="M368.723 129.607C368.717 129.851 368.726 130.095 368.753 130.338H526.512C526.102 117.333 514.781 106.906 500.897 106.906C496.632 106.894 492.423 107.905 488.625 109.85C488.814 99.7292 483.954 90.0335 474.992 84.8347C461.545 77.0431 443.956 82.3304 435.727 96.6542C433.331 100.805 431.912 105.448 431.581 110.23C425.019 107.227 416.892 105.441 408.073 105.441C386.342 105.441 368.723 116.265 368.723 129.607Z" fill="#FDFDFD"/>
<path d="M195.774 498.251H65.6864L65.7012 497.79C66.0472 486.782 75.4624 478.159 87.1327 478.159C90.4504 478.156 93.7287 478.886 96.7332 480.294C96.8201 471.87 101.138 464.196 108.128 460.141C110.727 458.645 113.599 457.679 116.574 457.302C119.549 456.924 122.571 457.146 125.461 457.946C128.705 458.83 131.741 460.349 134.393 462.417C137.044 464.482 139.257 467.058 140.905 469.987C142.798 473.259 143.959 476.901 144.308 480.66C149.848 478.238 156.354 476.959 163.165 476.959C181.187 476.959 195.848 486.041 195.848 497.205C195.852 497.419 195.842 497.639 195.82 497.854L195.774 498.251ZM66.6212 497.354H194.948V497.205C194.948 486.536 180.691 477.859 163.165 477.859C156.239 477.859 149.646 479.202 144.098 481.743L143.504 482.012L143.462 481.362C143.201 477.511 142.06 473.775 140.126 470.436C138.537 467.607 136.4 465.121 133.843 463.129C131.286 461.136 128.357 459.668 125.228 458.817C122.452 458.046 119.551 457.835 116.692 458.195C113.834 458.556 111.077 459.485 108.579 460.918C101.67 464.928 97.4778 472.627 97.6352 481.011L97.65 481.766L96.9792 481.42C93.9305 479.865 90.5553 479.056 87.1327 479.06C76.1168 479.06 67.2001 487.059 66.6212 497.354Z" fill="#9192FF"/>
<path d="M402.154 485.293C402.154 492.655 405.081 499.715 410.283 504.921C415.489 510.126 422.552 513.05 429.914 513.05H738.251C745.613 513.05 752.676 510.126 757.881 504.921C763.087 499.715 766.011 492.655 766.011 485.293V297.692H402.154V485.293Z" fill="#F5F5F5"/>
<path d="M391.098 345.527C395.35 331.889 408.806 321.424 423.511 320.316C438.212 319.207 453.216 327.528 459.651 340.36C467.476 340.288 475.18 344.627 478.982 351.24C480.845 354.559 481.765 358.321 481.649 362.126C481.529 365.931 480.374 369.632 478.31 372.829C487.626 374.444 495.989 380.574 500.112 388.81C502.14 392.933 503.146 397.489 503.046 402.088C502.946 406.683 501.734 411.188 499.526 415.221C509.78 410.009 522.891 410.483 532.728 416.421C542.568 422.363 548.764 433.545 548.42 444.741C554.806 434.725 567.052 428.479 579.224 429.035C591.399 429.591 603.005 436.92 608.422 447.475C614.136 430.375 629.372 416.571 647.403 412.161C665.435 407.747 685.663 412.874 699.159 425.276C719.454 428.449 734.241 450.487 728.954 469.666C739.919 478.738 745.523 493.488 743.23 507.243C740.938 520.998 730.83 533.28 717.482 538.531L368.302 538.306L338.532 405.086L391.098 345.527Z" fill="#DBCBFF" fill-opacity="0.99"/>
<path d="M377.574 389.773C381.693 376.132 394.7 365.655 408.907 364.533C423.111 363.415 437.601 371.723 443.808 384.551C447.61 384.512 451.352 385.501 454.637 387.413C457.925 389.325 460.635 392.089 462.478 395.411C464.321 398.737 465.235 402.501 465.118 406.299C464.999 410.101 463.856 413.797 461.81 417.004C466.33 417.81 470.596 419.677 474.255 422.453C477.914 425.227 480.864 428.831 482.86 432.967C484.859 437.1 485.843 441.651 485.743 446.243C485.643 450.835 484.452 455.335 482.274 459.378C487.26 456.754 492.843 455.478 498.471 455.686C504.1 455.891 509.575 457.569 514.353 460.554C519.13 463.535 523.042 467.717 525.698 472.687C528.355 477.652 529.662 483.23 529.49 488.859C535.668 478.837 547.504 472.583 559.266 473.129C571.025 473.672 582.234 480.995 587.459 491.543C592.994 474.443 607.726 460.628 625.15 456.201C642.573 451.775 662.112 456.883 675.138 469.272C694.743 472.432 709.019 494.458 703.894 513.639C714.479 522.705 719.879 537.448 717.655 551.203C715.432 564.958 705.657 577.251 692.754 582.516L355.394 582.563L326.738 449.369L377.574 389.773Z" fill="#F1F1FA"/>
<g opacity="0.7">
<path d="M645.782 303.698C544.721 398.736 473.056 424.364 382.771 433.527L376.775 529.494L471.544 561.886C554.318 559.487 633.796 439.655 682.891 336.858L645.782 303.698Z" fill="#FFF2E0"/>
</g>
<path d="M513.767 371.94C513.897 374.944 513.764 380.017 510.763 381.753C505.753 384.658 501.81 377.611 499.97 374.073C497.776 369.842 498.338 364.597 503.301 362.715C509.856 360.224 513.526 366.334 513.767 371.94Z" fill="#D1D1FF"/>
<path d="M751.351 463.165C751.48 466.169 751.348 471.242 748.346 472.978C743.336 475.88 739.394 468.836 737.554 465.295C735.359 461.067 735.922 455.822 740.884 453.936C747.44 451.449 751.11 457.559 751.351 463.165Z" fill="#D1D1FF"/>
<path d="M487.139 342.151C489.458 342.151 491.337 340.271 491.337 337.952C491.337 335.633 489.458 333.754 487.139 333.754C484.82 333.754 482.94 335.633 482.94 337.952C482.94 340.271 484.82 342.151 487.139 342.151Z" fill="#D1D1FF"/>
<path d="M703.517 419.455C706.677 417.884 707.97 414.047 706.395 410.883C704.824 407.723 700.987 406.434 697.826 408.005C694.666 409.576 693.375 413.414 694.946 416.574C696.521 419.737 700.357 421.027 703.517 419.455Z" fill="#D1D1FF"/>
<path d="M738.251 225.01H429.914C426.268 225.01 422.66 225.727 419.292 227.123C415.923 228.518 412.861 230.562 410.283 233.14C407.705 235.718 405.663 238.778 404.268 242.147C402.872 245.515 402.154 249.125 402.154 252.771V297.692H766.011V252.771C766.011 249.125 765.293 245.515 763.897 242.147C762.501 238.778 760.459 235.718 757.881 233.14C755.303 230.562 752.241 228.518 748.873 227.123C745.504 225.727 741.896 225.01 738.251 225.01Z" fill="#F9F9F9"/>
<path d="M494.397 272.113C500.342 266.169 500.342 256.533 494.397 250.589C488.452 244.646 478.819 244.646 472.874 250.589C466.931 256.533 466.931 266.169 472.874 272.113C478.819 278.056 488.452 278.056 494.397 272.113Z" fill="#EBEBFF"/>
<path d="M599.487 246.822H538.889C530.866 246.822 524.363 253.327 524.363 261.35C524.363 269.372 530.866 275.877 538.889 275.877H599.487C607.511 275.877 614.016 269.372 614.016 261.35C614.016 253.327 607.511 246.822 599.487 246.822Z" fill="#EBEBFF"/>
<path d="M738.251 513.652H429.914C422.393 513.646 415.189 510.654 409.872 505.337C404.555 500.02 401.563 492.811 401.554 485.293V297.093H766.608V485.293C766.601 492.811 763.61 500.02 758.293 505.337C752.976 510.654 745.768 513.646 738.251 513.652ZM402.752 298.292V485.293C402.762 492.493 405.624 499.397 410.716 504.489C415.809 509.582 422.711 512.447 429.914 512.453H738.251C745.45 512.447 752.353 509.582 757.445 504.489C762.537 499.397 765.402 492.493 765.409 485.293V298.292H402.752Z" fill="#9192FF"/>
<path d="M766.608 298.291H401.554V252.769C401.563 245.25 404.555 238.042 409.872 232.725C415.189 227.408 422.393 224.417 429.914 224.409H738.251C745.768 224.417 752.976 227.408 758.293 232.725C763.61 238.042 766.601 245.25 766.608 252.769V298.291ZM402.752 297.09H765.409V252.769C765.402 245.568 762.537 238.665 757.445 233.573C752.353 228.481 745.45 225.617 738.251 225.609H429.914C422.711 225.617 415.809 228.481 410.716 233.573C405.627 238.665 402.762 245.568 402.752 252.769V297.09Z" fill="#9192FF"/>
<path d="M453.724 264.379C455.395 256.141 450.071 248.107 441.835 246.435C433.599 244.763 425.563 250.086 423.892 258.324C422.221 266.561 427.544 274.594 435.78 276.267C444.017 277.938 452.053 272.616 453.724 264.379Z" fill="#D2C9F9"/>
<path d="M483.634 277.169C480.507 277.169 477.445 276.241 474.844 274.502C472.243 272.764 470.217 270.294 469.02 267.404C467.819 264.515 467.508 261.332 468.12 258.263C468.728 255.195 470.237 252.377 472.448 250.165C474.658 247.952 477.477 246.445 480.548 245.835C483.618 245.225 486.798 245.537 489.689 246.734C492.58 247.931 495.047 249.96 496.787 252.561C498.527 255.162 499.453 258.22 499.453 261.35C499.447 265.543 497.782 269.564 494.817 272.529C491.849 275.495 487.829 277.164 483.634 277.169ZM483.634 246.731C480.743 246.731 477.917 247.588 475.511 249.194C473.108 250.801 471.234 253.084 470.125 255.756C469.02 258.427 468.731 261.366 469.297 264.202C469.86 267.037 471.25 269.641 473.295 271.686C475.341 273.732 477.946 275.124 480.782 275.688C483.618 276.252 486.556 275.964 489.23 274.857C491.9 273.75 494.181 271.877 495.788 269.472C497.394 267.068 498.253 264.241 498.253 261.35C498.25 257.474 496.708 253.756 493.968 251.016C491.227 248.275 487.509 246.736 483.634 246.731Z" fill="#8F8CFF"/>
<path d="M599.487 276.477H538.889C534.876 276.477 531.03 274.884 528.194 272.047C525.356 269.21 523.763 265.363 523.763 261.351C523.763 257.34 525.356 253.492 528.194 250.655C531.03 247.818 534.876 246.225 538.889 246.225H599.487C603.5 246.225 607.346 247.818 610.185 250.655C613.02 253.492 614.613 257.34 614.613 261.351C614.613 265.363 613.02 269.21 610.185 272.047C607.346 274.884 603.5 276.477 599.487 276.477ZM538.889 247.424C535.196 247.424 531.655 248.89 529.044 251.503C526.43 254.116 524.962 257.658 524.962 261.351C524.962 265.044 526.43 268.587 529.044 271.199C531.655 273.812 535.196 275.278 538.889 275.278H599.487C603.18 275.278 606.724 273.812 609.335 271.199C611.946 268.587 613.414 265.044 613.414 261.351C613.414 257.658 611.946 254.116 609.335 251.503C606.724 248.89 603.18 247.424 599.487 247.424H538.889Z" fill="#9192FF"/>
<path d="M599.496 363.5C584.824 380.761 562.725 397.249 536.652 419.528L572.182 405.161C567.813 412.362 561.447 422.436 557.881 426.756C566.07 423.001 579.258 414.731 583.629 410.338C583.609 416.483 576.177 426.741 572.935 432.35C591.909 416.2 609.187 396.468 614.797 379.108L599.496 363.5Z" fill="#E4DAFF"/>
<g opacity="0.4">
<path d="M603.661 364.438C595.01 375.904 582.063 386.956 566.765 401.844L587.476 392.018C584.879 396.781 581.104 403.447 579.001 406.315C583.78 403.761 591.491 398.191 594.061 395.266C593.997 399.285 589.602 406.086 587.674 409.793C598.808 399.001 608.989 385.885 612.392 374.462L603.661 364.438Z" fill="#EBEBFF"/>
</g>
<path d="M655.693 262.943C634.066 281.874 596.767 268.826 585.177 283.943L618.297 310.17L655.693 262.943Z" fill="#2079FD"/>
<path d="M585.177 283.943C584.364 286.108 584.151 288.452 584.562 290.728C584.974 293.003 585.996 295.124 587.515 296.865L610.985 323.747L618.297 310.17L585.177 283.943Z" fill="#D1D1FF"/>
<path d="M704.711 301.758C691.242 327.148 712.492 360.464 700.433 375.211L667.313 348.985L704.711 301.758Z" fill="#2079FD"/>
<path d="M700.433 375.211C698.51 376.5 696.28 377.243 693.971 377.362C691.662 377.483 689.363 376.977 687.317 375.895L655.775 359.214L667.313 348.985L700.433 375.211Z" fill="#D1D1FF"/>
<path d="M721.536 230.404L692.049 241.228L717.76 261.587L721.536 230.404Z" fill="#DEDEFD"/>
<path d="M717.76 261.587C713.639 308.246 679.165 351.783 637.293 375.965L599.135 345.782C615.145 295.409 644.965 259.361 692.049 241.23L717.76 261.587Z" fill="#C5C5FF"/>
<path d="M599.134 345.779L582.583 357.24L629.924 394.729L637.292 375.964L599.134 345.779Z" fill="#2079FD"/>
<path d="M683.069 299.205C692.781 298.051 699.717 289.242 698.563 279.53C697.408 269.817 688.598 262.88 678.886 264.035C669.177 265.189 662.241 273.998 663.395 283.71C664.55 293.422 673.36 300.36 683.069 299.205Z" fill="#EBEBFF"/>
<path d="M673.23 271.624L673.887 272.467C673.081 273.096 672.362 273.829 671.749 274.645L670.896 274.003C671.565 273.111 672.352 272.31 673.23 271.624ZM676.106 269.935C677.134 269.502 678.218 269.205 679.323 269.059L679.465 270.118C678.454 270.251 677.463 270.523 676.52 270.92L676.106 269.935ZM669.264 276.913L670.258 277.305C669.882 278.256 669.632 279.252 669.517 280.267L668.457 280.146C668.582 279.037 668.853 277.951 669.264 276.913ZM682.658 269.061C683.764 269.207 684.847 269.499 685.878 269.929L685.465 270.915C684.525 270.52 683.531 270.252 682.518 270.119L682.658 269.061ZM668.411 282.542L669.474 282.46C669.552 283.479 669.767 284.482 670.11 285.444L669.103 285.804C668.729 284.753 668.496 283.655 668.411 282.542ZM688.755 271.614C689.636 272.301 690.421 273.1 691.091 273.993L690.237 274.636C689.623 273.818 688.903 273.085 688.097 272.457L688.755 271.614ZM671.504 288.161C672.088 289.001 672.78 289.758 673.561 290.417L672.873 291.234C672.02 290.515 671.266 289.686 670.629 288.771L671.504 288.161ZM691.734 277.295L692.726 276.9C693.14 277.937 693.414 279.025 693.539 280.135L692.479 280.255C692.364 279.238 692.113 278.244 691.734 277.295ZM676.132 292.058C677.061 292.487 678.043 292.791 679.051 292.961L678.871 294.014C677.769 293.827 676.699 293.494 675.685 293.025L676.132 292.058ZM692.422 283.307L693.476 283.468C693.31 284.572 692.999 285.647 692.55 286.669L691.57 286.24C691.983 285.304 692.27 284.318 692.422 283.307ZM682.099 293.078C683.117 292.981 684.115 292.749 685.07 292.388L685.45 293.386C684.405 293.78 683.313 294.035 682.2 294.141L682.099 293.078ZM689.978 288.843L690.809 289.516C690.104 290.383 689.292 291.152 688.387 291.806L687.76 290.942C688.59 290.343 689.334 289.637 689.978 288.843Z" fill="#9192FF"/>
<path d="M629.646 345.575L630.492 346.244C631.09 346.716 631.475 347.407 631.563 348.163C631.649 348.919 631.434 349.681 630.96 350.278L597.751 392.217C597.277 392.814 596.586 393.199 595.829 393.286C595.073 393.374 594.312 393.158 593.714 392.685L592.872 392.017C592.273 391.544 591.888 390.853 591.8 390.097C591.714 389.341 591.929 388.579 592.403 387.982L625.612 346.044C626.086 345.447 626.777 345.061 627.534 344.974C628.29 344.886 629.051 345.102 629.646 345.575Z" fill="#1B1B43"/>
<path d="M719.617 748.467H712.417V747.268H719.617V748.467ZM705.221 748.467H698.021V747.268H705.221V748.467ZM690.825 748.467H683.625V747.268H690.825V748.467ZM676.431 748.467H669.231V747.268H676.431V748.467ZM662.035 748.467H654.835V747.268H662.035V748.467ZM647.639 748.467H640.439V747.268H647.639V748.467ZM633.243 748.467H626.043V747.268H633.243V748.467ZM618.849 748.467H611.649V747.268H618.849V748.467ZM604.453 748.467H597.253V747.268H604.453V748.467ZM590.057 748.467H582.857V747.268H590.057V748.467ZM575.654 748.467C573.186 748.448 570.739 748.029 568.404 747.229L568.794 746.097C571.005 746.852 573.326 747.249 575.668 747.268L575.654 748.467ZM720.481 748.451L720.437 747.255C722.776 747.167 725.083 746.706 727.274 745.886L727.697 747.008C725.385 747.875 722.949 748.362 720.481 748.451ZM561.916 743.759C559.955 742.26 558.246 740.459 556.853 738.421L557.846 737.743C559.163 739.675 560.785 741.384 562.644 742.803L561.916 743.759ZM734.08 743.355L733.326 742.422C735.146 740.95 736.719 739.198 737.98 737.227L738.99 737.876C737.657 739.954 735.999 741.801 734.08 743.355ZM553.731 731.757C553.152 729.709 552.857 727.588 552.86 725.458V724.476H554.061V725.458C554.057 727.477 554.336 729.488 554.885 731.429L553.731 731.757ZM741.921 731.126L740.76 730.834C741.203 729.074 741.426 727.269 741.426 725.458V723.843H742.626V725.458C742.626 727.37 742.39 729.276 741.921 731.126ZM554.061 717.279H552.86V710.081H554.061V717.279ZM742.626 716.643H741.426V709.447H742.626V716.643ZM554.061 702.885H552.86V695.686H554.061V702.885ZM742.626 702.247H741.426V695.051H742.626V702.247ZM554.061 688.489H552.86V681.29H554.061V688.489ZM742.626 687.851H741.426V680.655H742.626V687.851ZM554.061 674.093H552.86V666.894H554.061V674.093ZM742.626 673.457H741.426V666.261H742.626V673.457ZM554.061 659.697H552.86V652.499H554.061V659.697ZM742.626 659.061H741.426V651.865H742.626V659.061ZM554.061 645.303H552.86V640.506C552.86 639.683 552.901 638.864 552.99 638.048L554.18 638.171C554.098 638.948 554.061 639.725 554.061 640.506V645.303ZM742.626 644.665H741.426V640.506C741.422 639.52 741.357 638.536 741.227 637.557L742.415 637.398C742.554 638.43 742.623 639.466 742.626 640.506V644.665ZM556.024 631.447L554.931 630.95C555.96 628.703 557.341 626.637 559.022 624.833L559.904 625.649C558.306 627.363 556.996 629.32 556.024 631.447ZM739.195 630.891C738.16 628.79 736.796 626.871 735.154 625.203L736.009 624.365C737.742 626.122 739.184 628.147 740.273 630.361L739.195 630.891ZM565.403 621.366L564.827 620.316C566.994 619.129 569.334 618.3 571.766 617.861L571.978 619.045C569.675 619.458 567.454 620.241 565.403 621.366ZM729.534 621.077C727.453 620.011 725.214 619.291 722.899 618.94L723.077 617.758C725.519 618.125 727.882 618.886 730.08 620.011L729.534 621.077ZM715.802 618.697H708.606V617.497H715.802V618.697ZM701.406 618.697H694.21V617.497H701.406V618.697ZM687.012 618.697H679.816V617.497H687.012V618.697ZM672.616 618.697H665.42V617.497H672.616V618.697ZM658.22 618.697H651.024V617.497H658.22V618.697ZM643.824 618.697H636.628V617.497H643.824V618.697ZM629.428 618.697H622.234V617.497H629.428V618.697ZM615.034 618.697H607.838V617.497H615.034V618.697ZM600.638 618.697H593.442V617.497H600.638V618.697ZM586.242 618.697H579.046V617.497H586.242V618.697Z" fill="#9192FF"/>
<path d="M553.344 594.332H706.487C711.186 594.332 715.692 596.2 719.012 599.519C722.334 602.842 724.202 607.345 724.202 612.044V709.965C724.202 714.66 722.334 719.167 719.012 722.486C715.692 725.809 711.186 727.677 706.487 727.677H553.344C548.649 727.677 544.142 725.809 540.822 722.486C537.5 719.167 535.632 714.66 535.632 709.965V612.044C535.632 607.345 537.5 602.842 540.822 599.519C544.142 596.2 548.649 594.332 553.344 594.332Z" fill="#3D9BE9"/>
<path d="M588.742 672.606H568.513V713.684H588.742V672.606Z" fill="#EBEBFF"/>
<path d="M623.143 673.101H602.497V713.685H623.143V673.101Z" fill="#EBEBFF"/>
<path d="M657.064 653.531H636.961V713.685H657.064V653.531Z" fill="#EBEBFF"/>
<path d="M689.482 649.618H672.928V713.685H689.482V649.618Z" fill="#EBEBFF"/>
<path d="M684.693 613.11H575.141V617.899H684.693V613.11Z" fill="#EBEBFF"/>
<path d="M242.748 463.231C238.842 451.33 231.117 441.052 220.77 433.991L216.614 431.154L222.627 502.116L248.449 480.602L242.748 463.231Z" fill="#E4DAFF"/>
<path d="M331.235 546.058L324.914 534.716C324.124 533.294 323.044 532.054 321.749 531.069C320.451 530.087 318.966 529.388 317.383 529.009L299.841 524.828L254.133 497.927L248.447 480.6L222.627 502.116L223.049 507.101C223.464 512.002 225.246 516.684 228.192 520.625C231.137 524.564 235.128 527.595 239.711 529.378L283.767 546.517L304.403 546.226C311.13 548.277 313.627 553.923 317.676 551.71C319.186 550.888 312.824 541.219 312.824 541.219L323.187 551.855L331.235 546.058Z" fill="#FFBC96"/>
<path d="M253.592 497.499L248.002 504.586L249.082 505.438L254.672 498.351L253.592 497.499Z" fill="#D28572"/>
<path d="M249.25 578.95L281.773 576.079C302.944 574.209 321.361 591.308 322.392 613.787L329.741 773.964L284.877 775.363L249.25 578.95Z" fill="#195FC7"/>
<path d="M288.484 773.768L289.86 818.013H356.34L323.56 790.732L321.495 769.413L288.484 773.768Z" fill="#1B1B43"/>
<path d="M322.719 789.644L308.733 800.418L310.416 802.597L324.398 791.824L322.719 789.644Z" fill="#EBEBFF"/>
<path d="M273.353 773.768L274.729 818.013H341.21L308.428 790.732L306.365 769.413L273.353 773.768Z" fill="#2A2A66"/>
<path d="M307.588 789.644L293.604 800.418L295.282 802.597L309.266 791.824L307.588 789.644Z" fill="#EBEBFF"/>
<path d="M322.873 778.125H267.851L228.635 657.465L223.148 640.575L144.744 640.231C139.903 640.162 135.268 637.921 131.334 634.605C123 627.578 119.16 616.533 120.674 605.733L127.551 556.669L244.028 571.813C254.803 573.215 264.873 577.934 272.842 585.318C280.81 592.703 286.283 602.386 288.497 613.023L322.873 778.125Z" fill="#0066FF"/>
<path d="M239.31 640.575L228.635 657.464L223.146 640.575H239.31Z" fill="#1B1B43"/>
<path d="M224.909 547.782C224.345 550.052 223.76 552.328 223.15 554.608L219.022 571.455L164.69 569.202L125.571 567.575C123.134 567.478 120.746 566.847 118.577 565.732C116.407 564.617 114.506 563.042 113.005 561.117C111.505 559.195 110.444 556.964 109.891 554.591C109.338 552.215 109.311 549.745 109.809 547.356L128.048 459.588C129.191 452.326 132.702 445.645 138.035 440.588C143.368 435.532 150.227 432.377 157.538 431.623L202.172 427.027L216.616 431.155C230.715 438.722 230.728 452.434 231.402 461.415C234.359 500.729 230.713 524.538 224.909 547.782Z" fill="#E4DAFF"/>
<g opacity="0.3">
<path d="M188.073 544.974C187.509 547.244 223.753 552.322 223.148 554.604L219.022 571.454L164.69 569.197C145.709 554.88 138.598 523.725 131.679 484.688L188.073 544.974Z" fill="#1B1B43"/>
</g>
<path d="M177.274 452.418C179.621 454.979 182.361 457.156 185.393 458.856C188.386 460.56 191.681 461.671 195.096 462.13C198.461 462.569 202.013 462.284 204.967 460.68C207.988 459.175 209.91 456.004 210.271 452.574L210.807 452.61C210.79 454.44 210.32 456.237 209.439 457.841C208.516 459.46 207.176 460.8 205.557 461.726C202.325 463.593 198.489 463.932 194.922 463.48C191.34 462.979 187.898 461.746 184.811 459.86C181.74 458.013 179.043 455.608 176.862 452.762L177.274 452.418Z" fill="#1B1B43"/>
<path d="M232.604 506.044L231.574 505.969C232.563 492.129 231.563 475.124 228.599 455.417L229.619 455.263C232.593 475.043 233.598 492.13 232.604 506.044Z" fill="#1B1B43"/>
<path d="M320.189 554.836H269.067V564.922H320.189V554.836Z" fill="#1B1B43"/>
<path d="M408.679 564.922H305.975L353.201 474.597H455.904L408.679 564.922Z" fill="#3D9BE9"/>
<path d="M201.748 354.791C191.563 341.304 168.386 342.939 165.828 362.721C140.382 365.589 135.073 392.268 142.916 407.496L151.322 409.423L154.667 399.664L158.101 410.593L181.692 415.623L201.748 354.791Z" fill="#1B1B43"/>
<path d="M215.206 401.601L209.699 439.094C209.649 439.435 209.588 439.759 209.512 440.083C209.099 441.892 208.294 443.592 207.156 445.057C206.017 446.523 204.57 447.721 202.917 448.569C201.264 449.417 199.447 449.894 197.592 449.963C195.736 450.035 193.886 449.699 192.175 448.977C186.914 446.765 182.546 442.852 179.764 437.868C176.982 432.885 175.946 427.116 176.821 421.473L180.681 396.53L215.206 401.601Z" fill="#FFBC96"/>
<path d="M212.823 417.812L209.697 439.094C209.647 439.435 209.586 439.762 209.511 440.082C199.723 436.962 189.834 423.65 188.86 410.594L212.823 417.812Z" fill="#1B1B43"/>
<path d="M235.088 407.361C234.135 410.307 232.983 413.184 231.64 415.974C227.25 425.044 220.714 432.15 211.294 429.363C189.151 422.8 179.987 397.653 179.987 397.653L198.058 382.234L210.492 369.797L239.64 387.813C238.679 394.447 237.157 400.986 235.088 407.361Z" fill="#FFBC96"/>
<path d="M187.554 392.676C197.527 393.819 205.947 389.887 211.318 376.008C211.318 376.008 231.522 399.366 244.428 390.37C255.236 382.84 242.142 359.935 215.834 353.571C206.228 351.295 196.114 352.826 187.612 357.845C173.167 366.304 168.393 390.21 179.247 400.319L187.554 392.676Z" fill="#1B1B43"/>
<path d="M179.626 365.792C179.321 363.352 180.186 360.824 181.561 358.742C182.974 356.652 184.859 354.921 187.062 353.692C189.245 352.449 191.682 351.716 194.187 351.552C196.664 351.349 199.142 351.91 201.291 353.159C199.077 353.505 196.897 354.036 194.773 354.745C192.805 355.414 190.901 356.264 189.089 357.283C187.283 358.292 185.587 359.482 184.023 360.837C182.346 362.29 180.867 363.954 179.626 365.792Z" fill="#F5F1FF"/>
<path d="M186.542 403.02C190.744 402.013 193.166 397.081 191.95 392.006C190.735 386.93 186.343 383.628 182.141 384.632C177.939 385.639 175.517 390.573 176.732 395.648C177.947 400.726 182.34 404.024 186.542 403.02Z" fill="#FFBC96"/>
<path d="M183.587 398.964C184.05 397.437 184.179 395.834 183.971 394.251C183.628 392.693 182.998 391.214 182.112 389.887L182.507 389.521C183.252 390.048 183.884 390.72 184.368 391.49C184.851 392.264 185.175 393.127 185.321 394.029C185.468 394.927 185.432 395.85 185.217 396.735C185.002 397.624 184.614 398.457 184.074 399.193L183.587 398.964Z" fill="#1B1B43"/>
<path d="M221.497 399.405C221.386 399.846 221.152 400.243 220.821 400.549C220.489 400.855 220.077 401.061 219.632 401.137C219.186 401.216 218.727 401.161 218.312 400.983C217.897 400.804 217.543 400.507 217.292 400.132C217.04 399.757 216.906 399.318 216.899 398.866C216.894 398.414 217.017 397.97 217.259 397.588C217.501 397.205 217.849 396.902 218.259 396.715C218.67 396.525 219.127 396.461 219.573 396.527C220.209 396.653 220.771 397.029 221.13 397.571C221.492 398.11 221.622 398.769 221.497 399.405Z" fill="#1B1B43"/>
<path d="M233.272 403.182C233.127 403.558 232.876 403.883 232.549 404.118C232.223 404.354 231.837 404.489 231.434 404.51C231.032 404.53 230.634 404.43 230.285 404.228C229.939 404.027 229.658 403.725 229.477 403.367C229.296 403.009 229.223 402.604 229.267 402.202C229.31 401.804 229.471 401.423 229.725 401.113C229.98 400.802 230.318 400.573 230.702 400.452C231.085 400.331 231.497 400.322 231.885 400.429C232.433 400.61 232.887 401.004 233.147 401.517C233.407 402.035 233.452 402.633 233.272 403.182Z" fill="#1B1B43"/>
<path d="M222.318 393.006C222.236 394.208 220.32 394.039 217.505 393.712C214.691 393.385 212.629 393.965 212.717 393.212C212.805 392.456 215.16 390.831 217.992 390.77C220.914 390.707 222.417 391.576 222.318 393.006Z" fill="#1B1B43"/>
<path d="M231.1 395.463C230.722 396.605 232.077 397.112 234.094 397.779C236.111 398.447 237.293 399.695 237.506 398.967C237.719 398.239 236.717 395.92 234.827 394.887C232.878 393.822 231.55 394.106 231.1 395.463Z" fill="#1B1B43"/>
<path d="M226.396 404.332C226.84 405.045 227.328 405.728 227.858 406.378L228.651 407.365C228.977 407.734 229.249 408.146 229.459 408.591C229.589 408.89 229.644 409.218 229.618 409.542C229.585 409.879 229.458 410.202 229.249 410.47C228.909 410.88 228.478 411.205 227.989 411.42C227.141 411.778 226.23 411.964 225.31 411.966L225.183 411.444C225.95 411.129 226.695 410.766 227.415 410.356C227.703 410.184 227.957 409.955 228.161 409.686C228.3 409.476 228.28 409.396 228.192 409.113C227.963 408.573 227.29 407.796 226.886 407.034C226.41 406.262 226.074 405.408 225.891 404.521L226.396 404.332Z" fill="#1B1B43"/>
<path d="M213.645 411.019C214.803 412.81 216.034 414.491 217.639 415.676C219.279 416.867 221.251 417.516 223.278 417.531L223.344 418.062C222.243 418.378 221.086 418.425 219.963 418.204C218.82 417.973 217.743 417.484 216.82 416.773C215.039 415.367 213.754 413.427 213.154 411.238L213.645 411.019Z" fill="#1B1B43"/>
<g opacity="0.2">
<path d="M205.696 408.374C208.797 408.83 211.681 406.686 212.136 403.585C212.592 400.484 210.447 397.598 207.346 397.143C204.245 396.687 201.36 398.835 200.905 401.935C200.449 405.036 202.595 407.919 205.696 408.374Z" fill="#F5F1FF"/>
</g>
<g opacity="0.2">
<path d="M235.087 407.36C234.133 410.307 232.983 413.184 231.64 415.974C231.144 415.212 230.839 414.338 230.75 413.435C230.66 412.532 230.792 411.616 231.129 410.772C231.467 409.928 232.004 409.175 232.692 408.583C233.381 407.992 234.202 407.569 235.087 407.36Z" fill="#F5F1FF"/>
</g>
<path d="M163.978 468.362L132 485.539L143.464 509.377L177.018 491.858L163.978 468.362Z" fill="#E4DAFF"/>
<path d="M303.154 549.55C302.198 551.691 293.912 548.392 290.043 546.723C293.048 548.199 298.247 551.139 296.093 552.997C294.361 554.473 290.233 551.712 276.915 546.942C278.94 547.777 290.876 552.754 288.04 555.003C284.951 557.441 270.966 553.088 270.966 553.088L259.368 560.075L245.63 560.749L196.215 563.491C193.125 563.653 190.026 563.417 186.995 562.788C181.009 561.532 175.379 558.956 170.512 555.249C167.456 552.918 164.746 550.165 162.467 547.067C160.75 544.736 159.258 542.243 158.012 539.627L143.457 509.384L177.012 491.859L196.713 527.345L256.416 537.276L272.701 532.345C276.202 531.279 281.289 532.53 284.502 534.286C292.341 538.57 304.045 547.512 303.154 549.55Z" fill="#FFBC96"/>
<g opacity="0.2">
<path d="M187.637 557.632C187.724 559.373 187.506 561.119 186.994 562.785C181.008 561.529 175.377 558.958 170.511 555.251C167.454 552.92 164.744 550.162 162.466 547.067C164.599 545.172 167.225 543.915 170.041 543.449C172.857 542.982 175.746 543.32 178.378 544.424C181.01 545.527 183.275 547.354 184.914 549.692C186.552 552.027 187.495 554.78 187.637 557.632Z" fill="#E4DAFF"/>
</g>
<path d="M256.32 537.022C260.344 535.44 264.457 534.092 268.636 532.985C270.737 532.419 272.876 532.005 275.038 531.75C276.14 531.63 277.251 531.605 278.357 531.674C278.915 531.756 279.471 531.873 280.027 531.976C280.561 532.135 281.084 532.321 281.613 532.494C285.722 534.121 289.349 536.552 292.868 539.069C296.386 541.602 299.724 544.341 302.978 547.209L303.129 547.342L303.167 547.515C303.326 548.15 303.243 548.817 302.933 549.392C302.751 549.675 302.505 549.912 302.218 550.086C301.964 550.261 301.677 550.375 301.374 550.429C300.342 550.606 299.285 550.555 298.275 550.276C296.402 549.792 294.58 549.129 292.832 548.3C291.105 547.484 289.403 546.63 287.747 545.701C286.065 544.813 284.46 543.805 282.818 542.853L283.486 541.658C286.388 543.162 289.199 544.832 291.909 546.659C293.312 547.577 294.603 548.654 295.761 549.866C296.075 550.218 296.336 550.611 296.536 551.038C296.657 551.3 296.727 551.584 296.741 551.869C296.743 552.21 296.636 552.544 296.435 552.824C296.088 553.245 295.611 553.543 295.079 553.669C294.65 553.791 294.211 553.875 293.766 553.926L293.633 553.946L293.482 553.891L278.263 548.374L278.657 547.304C281.069 548.243 283.41 549.361 285.655 550.648C286.755 551.356 287.908 551.99 288.755 553.264C288.877 553.457 288.956 553.673 288.988 553.896C289.021 554.123 289.006 554.352 288.943 554.573C288.791 554.985 288.49 555.325 288.101 555.526C287.474 555.856 286.78 556.046 286.072 556.087C283.401 556.277 280.861 555.778 278.339 555.283C275.822 554.748 273.345 554.095 270.888 553.34L271.043 552.823C273.492 553.514 275.981 554.105 278.48 554.571C280.969 555.006 283.531 555.42 285.974 555.18C287.14 555.077 288.509 554.496 287.903 553.754C287.323 552.878 286.178 552.166 285.129 551.541C282.918 550.314 280.618 549.255 278.251 548.371L278.647 547.301L293.914 552.681L293.631 552.647C293.992 552.606 294.348 552.536 294.698 552.437C294.958 552.385 295.197 552.256 295.385 552.068C295.59 551.973 295.27 551.25 294.775 550.721C293.684 549.598 292.471 548.604 291.156 547.754C288.486 545.97 285.715 544.346 282.86 542.881L283.53 541.682C285.159 542.618 286.746 543.634 288.401 544.513C290.035 545.44 291.705 546.285 293.388 547.091C295.05 547.888 296.782 548.527 298.564 549.002C299.375 549.234 300.226 549.289 301.061 549.169L301.324 549.11C301.392 549.077 301.459 549.039 301.521 548.997C301.677 548.943 301.719 548.815 301.823 548.731C301.952 548.457 301.988 548.153 301.928 547.857L302.115 548.163C298.928 545.315 295.588 542.599 292.155 540.042C288.716 537.514 285.14 535.069 281.242 533.473L279.764 532.966C279.262 532.874 278.765 532.757 278.26 532.672C277.217 532.597 276.172 532.608 275.131 532.709C273.008 532.92 270.903 533.281 268.831 533.787C264.657 534.796 260.546 536.042 256.516 537.523L256.32 537.022Z" fill="#D28572"/>
<path d="M143.696 509.844L143.219 508.926L176.329 491.634L160.598 459.306L161.525 458.855L177.694 492.086L143.696 509.844Z" fill="#1B1B43"/>
<path d="M147.021 654.33H145.22V809.303H147.021V654.33Z" fill="#1B1B43"/>
<path d="M189.448 639.888H102.793C96.9056 639.888 92.1316 644.662 92.1316 650.548C92.1316 656.437 96.9056 661.208 102.793 661.208H189.448C195.335 661.208 200.109 656.437 200.109 650.548C200.109 644.662 195.335 639.888 189.448 639.888Z" fill="#E2E100"/>
<path d="M125.699 801.598H166.542C170.793 801.598 174.87 803.289 177.876 806.294C180.882 809.301 182.571 813.377 182.571 817.629V819.389H109.67V817.629C109.67 815.522 110.085 813.439 110.89 811.494C111.695 809.549 112.876 807.783 114.365 806.294C115.854 804.805 117.62 803.625 119.565 802.822C121.511 802.015 123.595 801.598 125.699 801.598Z" fill="#E2E100"/>
<path d="M250.961 574.388L249.439 575.347L403.035 818.81L404.557 817.851L250.961 574.388Z" fill="#1B1B43"/>
<path d="M403.066 574.408L249.409 817.831L250.931 818.791L404.586 575.367L403.066 574.408Z" fill="#1B1B43"/>
<path d="M461.568 564.923H192.427V585.22H461.568V564.923Z" fill="#E4DAFF"/>
<path d="M228.877 237.85C217.753 237.85 206.88 234.552 197.63 228.372C188.381 222.193 181.171 213.407 176.914 203.129C172.656 192.851 171.545 181.544 173.714 170.633C175.884 159.722 181.242 149.7 189.107 141.834C196.973 133.969 206.995 128.611 217.906 126.441C228.817 124.272 240.124 125.385 250.402 129.643C260.68 133.9 269.464 141.108 275.644 150.357C281.823 159.607 285.123 170.482 285.123 181.606C285.106 196.518 279.176 210.813 268.631 221.358C258.087 231.901 243.79 237.833 228.877 237.85ZM228.877 126.561C217.991 126.561 207.347 129.789 198.296 135.837C189.243 141.885 182.188 150.482 178.023 160.54C173.855 170.598 172.766 181.667 174.89 192.345C177.014 203.023 182.257 212.83 189.955 220.528C197.653 228.226 207.461 233.469 218.139 235.593C228.817 237.717 239.885 236.628 249.943 232.461C260.001 228.295 268.598 221.238 274.646 212.187C280.695 203.134 283.922 192.492 283.922 181.606C283.906 167.012 278.102 153.019 267.783 142.7C257.464 132.381 243.472 126.577 228.877 126.561Z" fill="#9192FF"/>
<path d="M253.022 224.236C286.821 224.236 314.219 196.839 314.219 163.04C314.219 129.241 286.821 101.843 253.022 101.843C219.223 101.843 191.826 129.241 191.826 163.04C191.826 196.839 219.223 224.236 253.022 224.236Z" fill="white"/>
<path d="M253.043 164.201L224.327 132.829L225.437 131.412L253.001 161.88L272.288 149.299L273.451 150.673L253.043 164.201Z" fill="#1B1B43"/>
<path d="M94.216 306.588H63.1413C61.9523 306.588 60.7748 306.822 59.676 307.278C58.5772 307.732 57.58 308.4 56.7387 309.241C55.8974 310.082 55.2299 311.079 54.7756 312.178C54.3214 313.277 54.0868 314.455 54.0868 315.644V346.718C54.0868 347.907 54.3214 349.085 54.7756 350.184C55.2299 351.282 55.8974 352.28 56.7387 353.121C57.58 353.962 58.5772 354.63 59.676 355.084C60.7748 355.54 61.9523 355.773 63.1413 355.773H85.3174L94.8736 368.97V355.74C97.1549 355.576 99.2885 354.553 100.847 352.88C102.405 351.205 103.269 349.004 103.27 346.718V315.644C103.27 314.455 103.038 313.277 102.582 312.178C102.127 311.079 101.46 310.082 100.619 309.241C99.7772 308.4 98.7801 307.732 97.6813 307.278C96.5825 306.822 95.405 306.588 94.216 306.588Z" fill="white"/>
<path d="M95.4722 370.818L85.0107 356.371H63.1396C60.5796 356.368 58.1262 355.351 56.3156 353.541C54.5051 351.73 53.4882 349.277 53.485 346.717V315.642C53.4882 313.082 54.5051 310.628 56.3156 308.818C58.1262 307.007 60.5796 305.991 63.1396 305.987H94.2144C96.7744 305.991 99.2278 307.007 101.038 308.818C102.849 310.628 103.866 313.082 103.869 315.642V346.717C103.861 349.057 103.005 351.314 101.462 353.072C99.9183 354.83 97.7912 355.968 95.4722 356.279V370.818ZM63.1396 307.188C60.8978 307.189 58.7477 308.08 57.1635 309.666C55.5792 311.25 54.6871 313.4 54.6838 315.642V346.717C54.6871 348.959 55.5792 351.109 57.1635 352.693C58.7477 354.277 60.8978 355.169 63.1396 355.172H85.6224L94.2718 367.117V355.181L94.8277 355.14C96.9548 354.979 98.9441 354.024 100.397 352.463C101.85 350.902 102.662 348.85 102.67 346.717V315.642C102.669 313.4 101.776 311.25 100.191 309.666C98.6063 308.08 96.4563 307.189 94.2144 307.188H63.1396Z" fill="#9192FF"/>
<path d="M78.0407 347.174L65.6029 329.208L68.5615 327.158L77.716 340.381L91.5018 315.709L94.644 317.466L78.0407 347.174Z" fill="#9192FF"/>
<path d="M779.151 817.588H41.8885V819.389H779.151V817.588Z" fill="#1B1B43"/>
</svg>
