<svg width="148" height="62" viewBox="0 0 148 62" fill="none" xmlns="http://www.w3.org/2000/svg">
<path d="M22.1245 7.116C26.0047 3.18594 32.3363 3.14558 36.2663 7.02585L51.5587 22.1245C55.4888 26.0048 55.5291 32.3363 51.6488 36.2664L36.5502 51.5587C32.6699 55.4888 26.3384 55.5292 22.4083 51.6489L7.11596 36.5502C3.18591 32.67 3.14554 26.3384 7.02581 22.4084L14.5751 14.7622L22.1245 7.116Z" fill="url(#paint0_linear_5_36)"/>
<g filter="url(#filter0_d_5_36)">
<path d="M30.9142 42.6093C33.1448 42.3184 34.0479 39.817 33.1047 37.766L32.8267 37.1616C32.0371 35.4445 29.9064 34.8214 28.066 34.4198C26.9455 34.1753 25.9349 33.5706 25.1872 32.6974C24.4395 31.8243 23.9956 30.7301 23.9227 29.5808C23.8498 28.4315 24.1518 27.2896 24.7831 26.3281C25.4143 25.3667 26.3404 24.6381 27.421 24.2527C28.5015 23.8673 29.6777 23.8462 30.7714 24.1925C31.865 24.5387 32.8164 25.2336 33.4815 26.1717C34.5739 27.7124 35.9834 29.434 37.866 29.4866L38.5286 29.5051C40.7771 29.5679 42.7107 27.7491 42.0984 25.5752C41.6822 24.0979 41.0152 22.6932 40.1169 21.4263C38.4244 19.0391 36.0034 17.2711 33.2206 16.3899C30.4377 15.5088 27.4448 15.5627 24.6952 16.5433C21.9455 17.5239 19.5891 19.3779 17.9828 21.8244C16.3765 24.2709 15.6079 27.1765 15.7935 30.1011C15.979 33.0256 17.1086 35.8098 19.0111 38.0317C20.9136 40.2536 23.4853 41.7922 26.3366 42.4144C27.85 42.7446 29.3983 42.8071 30.9142 42.6093Z" fill="white"/>
<path d="M36.2251 38.1933C37.7498 39.4248 39.9799 39.1817 41.206 37.6504C42.4322 36.1191 42.1901 33.8793 40.6654 32.6479C39.1407 31.4164 36.9107 31.6595 35.6845 33.1908C34.4583 34.7221 34.7004 36.9619 36.2251 38.1933Z" fill="white"/>
</g>
<path d="M70.5934 33.2999C70.2412 33.5683 69.8197 33.7817 69.3291 33.9403C68.8385 34.0988 68.3479 34.1781 67.8573 34.1781C67.0019 34.1781 66.2534 34.0134 65.6118 33.6841C64.9702 33.3548 64.467 32.8975 64.1022 32.312C63.75 31.7144 63.5739 31.0131 63.5739 30.2081C63.5739 29.4032 63.7625 28.7019 64.1399 28.1043C64.5299 27.5066 65.0331 27.0493 65.6495 26.7322C66.2785 26.4029 66.9515 26.2382 67.6686 26.2382C68.2976 26.2382 68.8574 26.3236 69.348 26.4943C69.8512 26.6651 70.2789 26.8968 70.6311 27.1895L69.7631 28.2872C69.5367 28.1165 69.2599 27.964 68.9329 27.8298C68.6058 27.6957 68.2347 27.6286 67.8195 27.6286C67.3667 27.6286 66.9452 27.7445 66.5553 27.9762C66.1779 28.1957 65.876 28.5006 65.6495 28.8909C65.4357 29.2812 65.3287 29.7203 65.3287 30.2081C65.3287 30.6716 65.442 31.1046 65.6684 31.5071C65.8948 31.8974 66.2093 32.2084 66.6119 32.4401C67.0144 32.6596 67.4736 32.7694 67.9894 32.7694C68.329 32.7694 68.6372 32.7206 68.914 32.623C69.2033 32.5255 69.4612 32.3913 69.6876 32.2206L70.5934 33.2999Z" fill="#3A0CA3"/>
<path d="M72.1795 30.135C72.1795 29.3788 72.3619 28.6958 72.7267 28.086C73.1041 27.4761 73.6199 26.9944 74.274 26.6407C74.9282 26.287 75.6704 26.1101 76.5006 26.1101C77.3561 26.1101 78.1046 26.287 78.7461 26.6407C79.3877 26.9944 79.8846 27.4761 80.2369 28.086C80.5891 28.6958 80.7652 29.3788 80.7652 30.135C80.7652 30.8911 80.5891 31.5802 80.2369 32.2023C79.8846 32.8121 79.3814 33.2938 78.7273 33.6475C78.0857 34.0012 77.3372 34.1781 76.4818 34.1781C75.6515 34.1781 74.9093 34.0134 74.2552 33.6841C73.6136 33.3426 73.1041 32.8731 72.7267 32.2754C72.3619 31.6656 72.1795 30.9521 72.1795 30.135ZM73.9344 30.1533C73.9344 30.6411 74.0476 31.0863 74.274 31.4888C74.5005 31.8791 74.8024 32.1901 75.1798 32.4218C75.5697 32.6535 75.9975 32.7694 76.4629 32.7694C76.9535 32.7694 77.3875 32.6535 77.7649 32.4218C78.1549 32.1901 78.4568 31.8791 78.6707 31.4888C78.8845 31.0863 78.9915 30.6411 78.9915 30.1533C78.9915 29.6654 78.8845 29.2263 78.6707 28.836C78.4568 28.4336 78.1549 28.1165 77.7649 27.8847C77.3875 27.6408 76.9535 27.5188 76.4629 27.5188C75.9849 27.5188 75.5509 27.6408 75.1609 27.8847C74.7835 28.1287 74.4816 28.4519 74.2552 28.8543C74.0413 29.2446 73.9344 29.6776 73.9344 30.1533Z" fill="#3A0CA3"/>
<path d="M86.3114 34.1781C85.5944 34.1781 84.9402 34.0134 84.349 33.6841C83.7703 33.3426 83.3111 32.867 82.9715 32.2571C82.6318 31.6351 82.462 30.9216 82.462 30.1167C82.462 29.2751 82.6381 28.5555 82.9904 27.9579C83.3552 27.3603 83.8458 26.9029 84.4622 26.5858C85.0786 26.2687 85.7705 26.1101 86.5379 26.1101C87.1543 26.1101 87.7392 26.2382 88.2928 26.4943C88.8588 26.7505 89.2991 27.1042 89.6136 27.5554L89.5382 28.1591V19.8351H91.2742V33.9951H89.5193V32.1108L89.708 32.5864C89.3432 33.0499 88.8714 33.4341 88.2928 33.739C87.7141 34.0317 87.0536 34.1781 86.3114 34.1781ZM86.8587 32.7328C87.3241 32.7328 87.7392 32.6535 88.1041 32.495C88.4689 32.3242 88.7708 32.0925 89.0098 31.7998C89.2488 31.5071 89.4186 31.1595 89.5193 30.757V29.33C89.4186 28.9641 89.2362 28.647 88.9721 28.3787C88.7205 28.0982 88.4123 27.8786 88.0474 27.7201C87.6952 27.5493 87.299 27.4639 86.8587 27.4639C86.3806 27.4639 85.9403 27.5798 85.5378 27.8115C85.1478 28.0311 84.8333 28.336 84.5943 28.7263C84.3553 29.1166 84.2358 29.5678 84.2358 30.0801C84.2358 30.5801 84.3553 31.0314 84.5943 31.4339C84.8333 31.8242 85.1541 32.1413 85.5566 32.3852C85.9592 32.6169 86.3932 32.7328 86.8587 32.7328Z" fill="#3A0CA3"/>
<path d="M97.9498 34.1781C97.0566 34.1781 96.2892 34.0073 95.6477 33.6658C95.0061 33.3121 94.5092 32.8365 94.157 32.2388C93.8173 31.629 93.6475 30.9338 93.6475 30.1533C93.6475 29.4093 93.8425 28.7324 94.2324 28.1226C94.6224 27.5127 95.1445 27.0249 95.7986 26.659C96.4528 26.2931 97.1824 26.1101 97.9875 26.1101C99.0191 26.1101 99.8745 26.4029 100.554 26.9883C101.233 27.5737 101.692 28.3787 101.931 29.4032L95.4967 31.5985L95.0816 30.5923L100.365 28.7263L99.9877 28.9641C99.8368 28.5616 99.5852 28.214 99.2329 27.9213C98.8807 27.6164 98.4215 27.4639 97.8554 27.4639C97.3774 27.4639 96.9497 27.5798 96.5723 27.8115C96.1949 28.0311 95.8993 28.336 95.6854 28.7263C95.4716 29.1166 95.3646 29.5617 95.3646 30.0618C95.3646 30.5862 95.4778 31.0497 95.7043 31.4522C95.9307 31.8425 96.2389 32.1535 96.6289 32.3852C97.0315 32.6047 97.4843 32.7145 97.9875 32.7145C98.3272 32.7145 98.6543 32.6535 98.9687 32.5316C99.2958 32.4096 99.5977 32.251 99.8745 32.0559L100.686 33.3182C100.296 33.5744 99.8556 33.7817 99.365 33.9403C98.887 34.0988 98.4152 34.1781 97.9498 34.1781Z" fill="#3A0CA3"/>
<path d="M105.696 26.4212L105.866 28.6165L105.772 28.3238C105.973 27.8603 106.262 27.47 106.64 27.1529C107.03 26.8236 107.432 26.5736 107.848 26.4029C108.275 26.2199 108.646 26.1284 108.961 26.1284L108.867 27.8115C108.275 27.775 107.753 27.8847 107.3 28.1409C106.86 28.397 106.508 28.7385 106.244 29.1653C105.992 29.5922 105.866 30.0496 105.866 30.5374V33.9951H104.13V26.4212H105.696Z" fill="#3A0CA3"/>
<path d="M113.414 34.1415C112.86 34.1415 112.319 34.05 111.791 33.8671C111.275 33.6719 110.847 33.3853 110.508 33.0072L111.244 32.0193C111.571 32.3242 111.904 32.556 112.244 32.7145C112.596 32.8609 112.942 32.934 113.282 32.934C113.533 32.934 113.766 32.9036 113.98 32.8426C114.194 32.7816 114.363 32.684 114.489 32.5499C114.628 32.4035 114.697 32.2084 114.697 31.9644C114.697 31.6961 114.602 31.4827 114.414 31.3241C114.238 31.1656 114.005 31.0375 113.716 30.9399C113.439 30.8424 113.143 30.7509 112.829 30.6655C112.187 30.4582 111.697 30.1716 111.357 29.8057C111.017 29.4398 110.847 28.9946 110.847 28.4702C110.847 28.0677 110.948 27.6957 111.149 27.3542C111.363 27.0005 111.671 26.7139 112.074 26.4943C112.489 26.2748 112.999 26.165 113.602 26.165C114.143 26.165 114.628 26.2321 115.055 26.3663C115.483 26.4882 115.886 26.6956 116.263 26.9883L115.565 28.0494C115.338 27.8176 115.068 27.6469 114.753 27.5371C114.439 27.4274 114.156 27.3664 113.904 27.3542C113.69 27.342 113.483 27.3725 113.282 27.4457C113.093 27.5188 112.936 27.6225 112.81 27.7567C112.684 27.8908 112.621 28.0494 112.621 28.2323C112.621 28.4884 112.709 28.6958 112.885 28.8543C113.061 29.0129 113.288 29.141 113.565 29.2385C113.854 29.3239 114.137 29.4154 114.414 29.5129C114.804 29.6227 115.15 29.7691 115.452 29.952C115.754 30.135 115.993 30.3606 116.169 30.6289C116.357 30.8972 116.452 31.2326 116.452 31.6351C116.452 32.0864 116.338 32.5072 116.112 32.8975C115.898 33.2755 115.565 33.5805 115.112 33.8122C114.672 34.0317 114.106 34.1415 113.414 34.1415Z" fill="#3A0CA3"/>
<path d="M122.041 34.1781C121.35 34.1781 120.714 34.0134 120.136 33.6841C119.557 33.3548 119.091 32.8975 118.739 32.312C118.4 31.7144 118.23 31.0131 118.23 30.2081C118.23 29.3788 118.412 28.6592 118.777 28.0494C119.154 27.4396 119.651 26.9639 120.268 26.6224C120.897 26.2809 121.582 26.1101 122.324 26.1101C123.029 26.1101 123.652 26.2626 124.193 26.5675C124.733 26.8602 125.167 27.2444 125.495 27.7201L125.287 28.2506V26.3114H127.042V37.6358H125.306V32.0559L125.381 32.7694C125.079 33.1841 124.633 33.5256 124.042 33.7939C123.45 34.05 122.784 34.1781 122.041 34.1781ZM122.626 32.8243C123.079 32.8243 123.494 32.7389 123.872 32.5682C124.249 32.3974 124.557 32.1657 124.796 31.873C125.048 31.568 125.212 31.2204 125.287 30.8302V29.5495C125.186 29.1593 125.017 28.8178 124.778 28.525C124.539 28.2201 124.237 27.9823 123.872 27.8115C123.507 27.6408 123.092 27.5554 122.626 27.5554C122.161 27.5554 121.727 27.6713 121.324 27.903C120.922 28.1348 120.601 28.4519 120.362 28.8543C120.123 29.2568 120.003 29.7081 120.003 30.2081C120.003 30.7082 120.123 31.1534 120.362 31.5437C120.601 31.9339 120.922 32.2449 121.324 32.4767C121.727 32.7084 122.161 32.8243 122.626 32.8243Z" fill="#3A0CA3"/>
<path d="M132.566 34.2878C131.862 34.2878 131.277 34.0805 130.812 33.6658C130.359 33.239 130.12 32.6901 130.095 32.0193V26.4212H131.849V31.4156C131.875 31.8303 131.994 32.1657 132.208 32.4218C132.434 32.6779 132.787 32.8121 133.265 32.8243C133.705 32.8243 134.095 32.7023 134.435 32.4584C134.787 32.2023 135.07 31.8608 135.284 31.4339C135.498 30.9948 135.604 30.5009 135.604 29.952V26.4212H137.359V33.9951H135.755L135.604 32.1291L135.699 32.4584C135.548 32.8121 135.315 33.1292 135.001 33.4097C134.699 33.678 134.34 33.8915 133.925 34.05C133.51 34.2086 133.057 34.2878 132.566 34.2878Z" fill="#3A0CA3"/>
<path d="M144.018 34.1781C143.125 34.1781 142.358 34.0073 141.716 33.6658C141.075 33.3121 140.578 32.8365 140.226 32.2388C139.886 31.629 139.716 30.9338 139.716 30.1533C139.716 29.4093 139.911 28.7324 140.301 28.1226C140.691 27.5127 141.213 27.0249 141.867 26.659C142.521 26.2931 143.251 26.1101 144.056 26.1101C145.088 26.1101 145.943 26.4029 146.622 26.9883C147.302 27.5737 147.761 28.3787 148 29.4032L141.565 31.5985L141.15 30.5923L146.434 28.7263L146.056 28.9641C145.905 28.5616 145.654 28.214 145.302 27.9213C144.949 27.6164 144.49 27.4639 143.924 27.4639C143.446 27.4639 143.018 27.5798 142.641 27.8115C142.264 28.0311 141.968 28.336 141.754 28.7263C141.54 29.1166 141.433 29.5617 141.433 30.0618C141.433 30.5862 141.547 31.0497 141.773 31.4522C141.999 31.8425 142.308 32.1535 142.698 32.3852C143.1 32.6047 143.553 32.7145 144.056 32.7145C144.396 32.7145 144.723 32.6535 145.037 32.5316C145.364 32.4096 145.666 32.251 145.943 32.0559L146.755 33.3182C146.365 33.5744 145.924 33.7817 145.434 33.9403C144.956 34.0988 144.484 34.1781 144.018 34.1781Z" fill="#3A0CA3"/>
<defs>
<filter id="filter0_d_5_36" x="0.766296" y="4.7663" width="56.4467" height="56.9553" filterUnits="userSpaceOnUse" color-interpolation-filters="sRGB">
<feFlood flood-opacity="0" result="BackgroundImageFix"/>
<feColorMatrix in="SourceAlpha" type="matrix" values="0 0 0 0 0 0 0 0 0 0 0 0 0 0 0 0 0 0 127 0" result="hardAlpha"/>
<feOffset dy="4"/>
<feGaussianBlur stdDeviation="7.5"/>
<feComposite in2="hardAlpha" operator="out"/>
<feColorMatrix type="matrix" values="0 0 0 0 0 0 0 0 0 0 0 0 0 0 0 0 0 0 0.25 0"/>
<feBlend mode="normal" in2="BackgroundImageFix" result="effect1_dropShadow_5_36"/>
<feBlend mode="normal" in="SourceGraphic" in2="effect1_dropShadow_5_36" result="shape"/>
</filter>
<linearGradient id="paint0_linear_5_36" x1="29.1503" y1="0" x2="29.5243" y2="58.6747" gradientUnits="userSpaceOnUse">
<stop stop-color="#6B73FF"/>
<stop offset="1" stop-color="#000DFF"/>
</linearGradient>
</defs>
</svg>
