<svg width="207" height="59" viewBox="0 0 207 59" fill="none" xmlns="http://www.w3.org/2000/svg">
<path d="M80.6335 35.3617C80.0747 35.8115 79.3862 36.1733 78.568 36.4471C77.7697 36.7013 76.9615 36.8285 76.1433 36.8285C74.7464 36.8285 73.5191 36.5644 72.4614 36.0364C71.4037 35.4888 70.5755 34.7359 69.9768 33.7776C69.3981 32.7998 69.1087 31.6362 69.1087 30.2868C69.1087 28.9373 69.418 27.7737 70.0367 26.7959C70.6753 25.8181 71.5035 25.0749 72.5212 24.5664C73.559 24.0384 74.6566 23.7744 75.814 23.7744C76.8717 23.7744 77.8097 23.9211 78.6279 24.2144C79.4461 24.4882 80.1545 24.8696 80.7532 25.3585L79.0769 27.4999C78.7576 27.2457 78.3385 27.011 77.8196 26.7959C77.3207 26.5612 76.752 26.4439 76.1134 26.4439C75.4349 26.4439 74.8162 26.6101 74.2574 26.9426C73.7186 27.275 73.2796 27.7346 72.9403 28.3213C72.621 28.8885 72.4614 29.5436 72.4614 30.2868C72.4614 30.9908 72.631 31.6362 72.9703 32.2229C73.3095 32.8096 73.7785 33.2789 74.3772 33.6309C74.9759 33.9634 75.6644 34.1296 76.4427 34.1296C76.9416 34.1296 77.4006 34.0612 77.8196 33.9243C78.2587 33.7678 78.6379 33.5625 78.9572 33.3083L80.6335 35.3617Z" fill="#26076C"/>
<path d="M83.0236 30.1694C83.0236 28.9178 83.3229 27.7933 83.9216 26.7959C84.5203 25.7789 85.3585 24.9869 86.4361 24.4198C87.5337 23.8331 88.771 23.5397 90.148 23.5397C91.5649 23.5397 92.7922 23.8331 93.8299 24.4198C94.8876 24.9869 95.7058 25.7789 96.2845 26.7959C96.8633 27.7933 97.1526 28.9178 97.1526 30.1694C97.1526 31.421 96.8633 32.5553 96.2845 33.5723C95.7058 34.5697 94.8876 35.3617 93.8299 35.9484C92.7922 36.5351 91.5549 36.8285 90.118 36.8285C88.761 36.8285 87.5437 36.5644 86.466 36.0364C85.3884 35.4888 84.5402 34.7163 83.9216 33.7189C83.3229 32.7216 83.0236 31.5384 83.0236 30.1694ZM86.4062 30.1988C86.4062 30.9223 86.5658 31.5873 86.8851 32.1935C87.2044 32.7802 87.6434 33.2496 88.2022 33.6016C88.761 33.9536 89.3796 34.1296 90.0582 34.1296C90.7965 34.1296 91.4352 33.9536 91.974 33.6016C92.5327 33.2496 92.9618 32.7802 93.2611 32.1935C93.5804 31.5873 93.7401 30.9223 93.7401 30.1988C93.7401 29.4556 93.5804 28.7907 93.2611 28.204C92.9618 27.5977 92.5327 27.1186 91.974 26.7666C91.4352 26.4145 90.7965 26.2385 90.0582 26.2385C89.3597 26.2385 88.7311 26.4243 88.1723 26.7959C87.6335 27.1479 87.2044 27.6173 86.8851 28.204C86.5658 28.7907 86.4062 29.4556 86.4062 30.1988Z" fill="#26076C"/>
<path d="M105.854 36.8285C104.657 36.8285 103.589 36.5547 102.651 36.0071C101.713 35.4595 100.975 34.6772 100.436 33.6603C99.8972 32.6433 99.6278 31.4602 99.6278 30.1107C99.6278 28.7222 99.9172 27.539 100.496 26.5612C101.075 25.5834 101.863 24.8402 102.861 24.3318C103.879 23.8037 105.016 23.5397 106.273 23.5397C107.191 23.5397 108.069 23.7157 108.908 24.0677C109.746 24.4002 110.414 24.8891 110.913 25.5345L110.853 26.6492V13.6245H114.176V36.5058H110.823V33.7189L111.153 34.511C110.514 35.1759 109.746 35.7333 108.848 36.1831C107.97 36.6133 106.972 36.8285 105.854 36.8285ZM106.932 34.0416C107.59 34.0416 108.169 33.9341 108.668 33.7189C109.187 33.5038 109.626 33.2007 109.985 32.8096C110.364 32.3989 110.644 31.9197 110.823 31.3722V28.732C110.664 28.2235 110.394 27.7737 110.015 27.3826C109.656 26.9915 109.207 26.6883 108.668 26.4732C108.129 26.2581 107.55 26.1505 106.932 26.1505C106.213 26.1505 105.555 26.3168 104.956 26.6492C104.377 26.9817 103.908 27.4413 103.549 28.028C103.19 28.6147 103.01 29.2894 103.01 30.0521C103.01 30.7952 103.19 31.4699 103.549 32.0762C103.908 32.6824 104.387 33.1616 104.986 33.5136C105.585 33.8656 106.233 34.0416 106.932 34.0416Z" fill="#26076C"/>
<path d="M124.847 36.8285C123.35 36.8285 122.073 36.5449 121.015 35.9777C119.957 35.4106 119.149 34.6283 118.59 33.6309C118.032 32.614 117.752 31.4699 117.752 30.1988C117.752 28.9471 118.072 27.8226 118.71 26.8252C119.349 25.8278 120.207 25.0358 121.284 24.4491C122.382 23.8428 123.589 23.5397 124.907 23.5397C126.643 23.5397 128.07 24.0384 129.187 25.0358C130.325 26.0136 131.083 27.4021 131.462 29.2014L121.255 32.5749L120.476 30.7268L128.439 27.94L127.75 28.3213C127.531 27.7346 127.172 27.2261 126.673 26.7959C126.194 26.3656 125.515 26.1505 124.637 26.1505C123.939 26.1505 123.32 26.3168 122.781 26.6492C122.242 26.9621 121.813 27.4119 121.494 27.9986C121.195 28.5658 121.045 29.2405 121.045 30.0227C121.045 30.8246 121.215 31.5286 121.554 32.1349C121.893 32.7411 122.352 33.2105 122.931 33.5429C123.51 33.8558 124.168 34.0123 124.907 34.0123C125.425 34.0123 125.924 33.9243 126.403 33.7483C126.882 33.5723 127.331 33.3376 127.75 33.0442L129.277 35.479C128.618 35.8897 127.89 36.2222 127.092 36.4764C126.313 36.7111 125.565 36.8285 124.847 36.8285Z" fill="#26076C"/>
<path d="M137.784 24.0971L138.084 27.6173L137.964 27.1186C138.323 26.3754 138.812 25.7398 139.431 25.2118C140.069 24.6642 140.718 24.2535 141.377 23.9797C142.035 23.6864 142.574 23.5397 142.993 23.5397L142.843 26.8252C141.885 26.747 141.047 26.923 140.329 27.3533C139.63 27.7639 139.082 28.3115 138.682 28.996C138.303 29.6805 138.114 30.4041 138.114 31.1668V36.5058H134.761V24.0971H137.784Z" fill="#26076C"/>
<path d="M150.227 36.7698C149.269 36.7698 148.351 36.6036 147.473 36.2711C146.615 35.9386 145.886 35.4497 145.287 34.8043L146.724 32.9562C147.283 33.4843 147.832 33.8754 148.371 34.1296C148.93 34.3643 149.458 34.4817 149.957 34.4817C150.336 34.4817 150.676 34.4426 150.975 34.3643C151.294 34.2665 151.544 34.1199 151.723 33.9243C151.923 33.7287 152.023 33.4647 152.023 33.1323C152.023 32.7411 151.883 32.438 151.604 32.2229C151.324 31.9882 150.965 31.8024 150.526 31.6655C150.087 31.509 149.628 31.3624 149.149 31.2255C148.051 30.893 147.233 30.4041 146.694 29.7587C146.156 29.1134 145.886 28.3702 145.886 27.5293C145.886 26.8839 146.056 26.2679 146.395 25.6812C146.734 25.0749 147.253 24.5762 147.952 24.1851C148.65 23.7939 149.528 23.5984 150.586 23.5984C151.544 23.5984 152.372 23.7059 153.07 23.9211C153.789 24.1166 154.457 24.4589 155.076 24.9478L153.789 26.9132C153.43 26.5808 153.001 26.3265 152.502 26.1505C152.023 25.955 151.584 25.8474 151.185 25.8278C150.825 25.8083 150.506 25.8572 150.227 25.9745C149.947 26.0723 149.718 26.219 149.538 26.4145C149.379 26.6101 149.299 26.835 149.299 27.0892C149.279 27.4804 149.408 27.7933 149.688 28.028C149.987 28.2626 150.366 28.4484 150.825 28.5853C151.284 28.7222 151.743 28.8689 152.202 29.0253C152.821 29.2014 153.37 29.4458 153.849 29.7587C154.328 30.0716 154.697 30.453 154.956 30.9028C155.236 31.333 155.375 31.8708 155.375 32.5162C155.375 33.2594 155.186 33.9634 154.807 34.6283C154.427 35.2737 153.859 35.792 153.1 36.1831C152.342 36.5742 151.384 36.7698 150.227 36.7698Z" fill="#26076C"/>
<path d="M164.172 36.8285C163.054 36.8285 162.026 36.5644 161.088 36.0364C160.17 35.5084 159.432 34.7555 158.873 33.7776C158.315 32.7998 158.035 31.6362 158.035 30.2868C158.035 28.8982 158.334 27.7053 158.933 26.7079C159.552 25.6909 160.36 24.9087 161.358 24.3611C162.376 23.8135 163.483 23.5397 164.681 23.5397C165.778 23.5397 166.726 23.7548 167.524 24.1851C168.343 24.6153 169.021 25.1727 169.56 25.8572L169.231 26.7372V23.8624H172.583V42.4608H169.261V33.6309L169.35 34.863C168.851 35.4302 168.143 35.8995 167.225 36.2711C166.327 36.6427 165.309 36.8285 164.172 36.8285ZM165.339 34.2176C165.978 34.2176 166.566 34.1003 167.105 33.8656C167.644 33.6309 168.093 33.3083 168.452 32.8976C168.831 32.4869 169.091 32.0175 169.231 31.4895V28.996C169.051 28.4484 168.772 27.9791 168.392 27.5879C168.033 27.1772 167.594 26.8643 167.075 26.6492C166.576 26.4341 165.998 26.3265 165.339 26.3265C164.641 26.3265 163.992 26.5025 163.393 26.8546C162.795 27.187 162.316 27.6564 161.957 28.2626C161.597 28.8689 161.418 29.5534 161.418 30.3161C161.418 31.0592 161.597 31.7242 161.957 32.3109C162.316 32.8976 162.795 33.3669 163.393 33.7189C163.992 34.0514 164.641 34.2176 165.339 34.2176Z" fill="#26076C"/>
<path d="M181.278 37.0338C180.121 37.0338 179.163 36.6916 178.405 36.0071C177.646 35.303 177.247 34.4034 177.207 33.3083V24.0971H180.56V32.1349C180.6 32.7411 180.779 33.2398 181.099 33.6309C181.418 34.0221 181.927 34.2176 182.625 34.2176C183.284 34.2176 183.873 34.0221 184.392 33.6309C184.91 33.2203 185.309 32.6629 185.589 31.9589C185.888 31.2548 186.038 30.4628 186.038 29.5827V24.0971H189.391V36.5058H186.367L186.098 33.7776L186.188 34.2176C185.928 34.7457 185.559 35.2346 185.08 35.6844C184.601 36.1146 184.032 36.4471 183.374 36.6818C182.735 36.9165 182.037 37.0338 181.278 37.0338Z" fill="#26076C"/>
<path d="M200.063 36.8285C198.566 36.8285 197.289 36.5449 196.231 35.9777C195.174 35.4106 194.365 34.6283 193.807 33.6309C193.248 32.614 192.968 31.4699 192.968 30.1988C192.968 28.9471 193.288 27.8226 193.926 26.8252C194.565 25.8278 195.423 25.0358 196.501 24.4491C197.598 23.8428 198.806 23.5397 200.123 23.5397C201.859 23.5397 203.286 24.0384 204.403 25.0358C205.541 26.0136 206.299 27.4021 206.678 29.2014L196.471 32.5749L195.692 30.7268L203.655 27.94L202.967 28.3213C202.747 27.7346 202.388 27.2261 201.889 26.7959C201.41 26.3656 200.731 26.1505 199.853 26.1505C199.155 26.1505 198.536 26.3168 197.997 26.6492C197.459 26.9621 197.03 27.4119 196.71 27.9986C196.411 28.5658 196.261 29.2405 196.261 30.0227C196.261 30.8246 196.431 31.5286 196.77 32.1349C197.109 32.7411 197.568 33.2105 198.147 33.5429C198.726 33.8558 199.384 34.0123 200.123 34.0123C200.642 34.0123 201.141 33.9243 201.619 33.7483C202.098 33.5723 202.547 33.3376 202.967 33.0442L204.493 35.479C203.835 35.8897 203.106 36.2222 202.308 36.4764C201.53 36.7111 200.781 36.8285 200.063 36.8285Z" fill="#26076C"/>
<path fill-rule="evenodd" clip-rule="evenodd" d="M38.4091 3.45446C33.6055 -1.19333 25.8666 -1.14499 21.1238 3.56244L3.52506 21.0301C-1.21771 25.7375 -1.16839 33.3214 3.63523 37.9692L21.4598 55.2155C26.2634 59.8633 34.0023 59.815 38.7451 55.1076L56.3439 37.6399C61.0866 32.9325 61.0373 25.3486 56.2337 20.7008L38.4091 3.45446ZM34.4285 39.1884C35.5537 41.586 34.4764 44.5101 31.8154 44.8503C30.0071 45.0815 28.1601 45.0084 26.3548 44.6224C22.9535 43.895 19.8856 42.0964 17.6161 39.4989C15.3466 36.9014 13.9991 33.6467 13.7778 30.2278C13.5564 26.8089 14.4733 23.4122 16.3894 20.5522C18.3056 17.6922 21.1167 15.5248 24.3967 14.3784C27.6768 13.2321 31.2471 13.1691 34.5668 14.1992C37.8864 15.2292 40.7745 17.2961 42.7935 20.0868C43.8651 21.5679 44.6608 23.21 45.1572 24.937C45.8876 27.4783 43.5811 29.6046 40.8988 29.5311L40.1084 29.5095C37.8626 29.448 36.1812 27.4354 34.8781 25.6343C34.0847 24.5376 32.9497 23.7253 31.6451 23.3205C30.3405 22.9157 28.9374 22.9404 27.6484 23.391C26.3593 23.8415 25.2546 24.6932 24.5016 25.8172C23.7485 26.9411 23.3882 28.276 23.4752 29.6196C23.5622 30.9632 24.0918 32.2423 24.9837 33.263C25.8755 34.2838 27.0812 34.9907 28.4179 35.2765C30.6132 35.7459 33.155 36.4744 34.097 38.4818L34.4285 39.1884ZM44.0927 39.0532C42.63 40.8433 39.9698 41.1275 38.1509 39.6879C36.3321 38.2482 36.0433 35.63 37.506 33.8398C38.9687 32.0496 41.629 31.7654 43.4478 33.2051C45.2667 34.6447 45.5554 37.263 44.0927 39.0532Z" fill="#26076C"/>
</svg>
