<svg width="1920" height="825" viewBox="0 0 1920 825" fill="none" xmlns="http://www.w3.org/2000/svg">
<rect x="-159" y="-10" width="3029" height="825" fill="#26076C"/>
<path fill-rule="evenodd" clip-rule="evenodd" d="M1637.72 236.611C1613.52 283.161 1631.64 340.519 1678.19 364.723L1849.51 453.806C1896.07 478.011 1953.42 459.895 1977.63 413.345L2070.82 234.113C2095.02 187.563 2076.91 130.205 2030.36 106.001L1859.03 16.9174C1812.48 -7.28679 1755.12 10.8285 1730.92 57.379L1637.72 236.611ZM1651.58 232.059C1627.37 278.61 1645.49 335.968 1692.04 360.172L1845.28 439.851C1891.83 464.055 1949.19 445.94 1973.4 399.389L2056.96 238.665C2081.17 192.114 2063.05 134.756 2016.5 110.552L1863.26 30.8734C1816.71 6.66928 1759.35 24.7845 1735.15 71.335L1651.58 232.059Z" fill="#2D0A7D"/>
<path d="M720 636.5C720 726.799 646.799 800 556.5 800C466.201 800 393 726.799 393 636.5C393 546.201 466.201 473 556.5 473C646.799 473 720 546.201 720 636.5ZM409.695 636.5C409.695 717.578 475.422 783.305 556.5 783.305C637.578 783.305 703.305 717.578 703.305 636.5C703.305 555.422 637.578 489.695 556.5 489.695C475.422 489.695 409.695 555.422 409.695 636.5Z" fill="#2D0A7D"/>
<path d="M154 211.5C154 279.155 99.1549 334 31.5 334C-36.1549 334 -91 279.155 -91 211.5C-91 143.845 -36.1549 89 31.5 89C99.1549 89 154 143.845 154 211.5ZM-78.4916 211.5C-78.4916 272.247 -29.2467 321.492 31.5 321.492C92.2467 321.492 141.492 272.247 141.492 211.5C141.492 150.753 92.2467 101.508 31.5 101.508C-29.2467 101.508 -78.4916 150.753 -78.4916 211.5Z" fill="#2D0A7D"/>
<path d="M1749 661.5C1749 751.799 1675.8 825 1585.5 825C1495.2 825 1422 751.799 1422 661.5C1422 571.201 1495.2 498 1585.5 498C1675.8 498 1749 571.201 1749 661.5ZM1438.69 661.5C1438.69 742.578 1504.42 808.305 1585.5 808.305C1666.58 808.305 1732.31 742.578 1732.31 661.5C1732.31 580.422 1666.58 514.695 1585.5 514.695C1504.42 514.695 1438.69 580.422 1438.69 661.5Z" fill="#2D0A7D"/>
<path d="M1553 -43.5C1553 46.7986 1479.8 120 1389.5 120C1299.2 120 1226 46.7986 1226 -43.5C1226 -133.799 1299.2 -207 1389.5 -207C1479.8 -207 1553 -133.799 1553 -43.5ZM1242.69 -43.5C1242.69 37.5783 1308.42 103.305 1389.5 103.305C1470.58 103.305 1536.31 37.5783 1536.31 -43.5C1536.31 -124.578 1470.58 -190.305 1389.5 -190.305C1308.42 -190.305 1242.69 -124.578 1242.69 -43.5Z" fill="#2D0A7D"/>
<path d="M1249 393.5C1249 445.139 1207.14 487 1155.5 487C1103.86 487 1062 445.139 1062 393.5C1062 341.861 1103.86 300 1155.5 300C1207.14 300 1249 341.861 1249 393.5ZM1071.55 393.5C1071.55 439.866 1109.13 477.453 1155.5 477.453C1201.87 477.453 1239.45 439.866 1239.45 393.5C1239.45 347.134 1201.87 309.547 1155.5 309.547C1109.13 309.547 1071.55 347.134 1071.55 393.5Z" fill="#2D0A7D"/>
<path fill-rule="evenodd" clip-rule="evenodd" d="M710.031 -257.027C660.939 -275.541 606.133 -250.753 587.619 -201.661L465.171 123.027C446.657 172.119 471.446 226.925 520.538 245.439L856.908 372.293C906 390.807 960.806 366.018 979.32 316.926L1101.77 -7.76206C1120.28 -56.8541 1095.49 -111.66 1046.4 -130.173L710.031 -257.027ZM728.384 -217.662C679.292 -236.176 624.486 -211.387 605.972 -162.295L504.948 105.584C486.434 154.676 511.223 209.482 560.315 227.995L838.555 332.927C887.647 351.441 942.453 326.653 960.967 277.561L1061.99 9.68141C1080.5 -39.4106 1055.72 -94.2161 1006.62 -112.73L728.384 -217.662Z" fill="#2D0A7D"/>
<path fill-rule="evenodd" clip-rule="evenodd" d="M204.5 384C200.358 384 197 387.358 197 391.5V484H212V391.5C212 387.358 208.642 384 204.5 384ZM197 542V506H212V542H197ZM197 564V637.5C197 641.642 200.358 645 204.5 645C208.642 645 212 641.642 212 637.5V564H197Z" fill="#2D0A7D"/>
<path fill-rule="evenodd" clip-rule="evenodd" d="M153.5 443C149.358 443 146 446.358 146 450.5V514.264H161V450.5C161 446.358 157.642 443 153.5 443ZM146 555.598V529.943H161V555.598H146ZM146 571.276V621.5C146 625.642 149.358 629 153.5 629C157.642 629 161 625.642 161 621.5V571.276H146Z" fill="#2D0A7D"/>
<path fill-rule="evenodd" clip-rule="evenodd" d="M249.5 423C245.358 423 242 426.358 242 430.5V465.529H257V430.5C257 426.358 253.642 423 249.5 423ZM242 490.195V474.885H257V490.195H242ZM242 499.552V526.5C242 530.642 245.358 534 249.5 534C253.642 534 257 530.642 257 526.5V499.552H242Z" fill="#2D0A7D"/>
<path fill-rule="evenodd" clip-rule="evenodd" d="M921.986 567.142C919.226 570.231 919.491 574.972 922.58 577.732L991.545 639.377L1001.54 628.194L932.576 566.549C929.488 563.788 924.746 564.054 921.986 567.142ZM1034.79 678.03L1007.95 654.039L1017.94 642.855L1044.78 666.847L1034.79 678.03ZM1051.19 692.691L1105.99 741.674C1109.08 744.434 1113.82 744.169 1116.58 741.081C1119.34 737.992 1119.07 733.251 1115.99 730.491L1061.19 681.508L1051.19 692.691Z" fill="#2D0A7D"/>
<path fill-rule="evenodd" clip-rule="evenodd" d="M931.987 644.486C929.226 647.574 929.492 652.315 932.58 655.076L980.121 697.57L990.117 686.387L942.577 643.892C939.488 641.132 934.747 641.397 931.987 644.486ZM1010.94 725.116L991.81 708.019L1001.81 696.835L1020.93 713.932L1010.94 725.116ZM1022.63 735.564L1060.07 769.035C1063.16 771.796 1067.9 771.53 1070.66 768.442C1073.42 765.353 1073.16 760.612 1070.07 757.852L1032.62 724.381L1022.63 735.564Z" fill="#2D0A7D"/>
<path fill-rule="evenodd" clip-rule="evenodd" d="M981.053 559.583C978.292 562.671 978.558 567.412 981.646 570.173L1007.76 593.517L1017.76 582.333L991.643 558.989C988.554 556.229 983.813 556.494 981.053 559.583ZM1026.15 609.955L1014.74 599.752L1024.73 588.569L1036.15 598.772L1026.15 609.955ZM1033.13 616.191L1053.22 634.15C1056.31 636.91 1061.05 636.644 1063.81 633.556C1066.57 630.468 1066.31 625.727 1063.22 622.966L1043.13 605.007L1033.13 616.191Z" fill="#2D0A7D"/>
<path fill-rule="evenodd" clip-rule="evenodd" d="M1355.87 368.16C1359.57 370.02 1364.08 368.526 1365.94 364.825L1407.46 282.168L1394.06 275.434L1352.54 358.092C1350.68 361.793 1352.17 366.301 1355.87 368.16ZM1433.5 230.339L1417.34 262.509L1403.93 255.775L1420.09 223.606L1433.5 230.339ZM1443.37 210.68L1476.37 145.001C1478.23 141.3 1476.73 136.792 1473.03 134.933C1469.33 133.073 1464.82 134.567 1462.96 138.268L1429.97 203.947L1443.37 210.68Z" fill="#2D0A7D"/>
<path fill-rule="evenodd" clip-rule="evenodd" d="M1427.93 338.331C1431.63 340.19 1436.14 338.697 1438 334.996L1466.62 278.016L1453.22 271.283L1424.6 328.263C1422.74 331.964 1424.23 336.472 1427.93 338.331ZM1485.18 241.081L1473.66 264.007L1460.26 257.273L1471.77 234.348L1485.18 241.081ZM1492.21 227.071L1514.76 182.192C1516.62 178.49 1515.12 173.982 1511.42 172.123C1507.72 170.264 1503.21 171.757 1501.35 175.458L1478.81 220.338L1492.21 227.071Z" fill="#2D0A7D"/>
<path fill-rule="evenodd" clip-rule="evenodd" d="M1333.17 313.11C1336.87 314.97 1341.38 313.476 1343.24 309.775L1358.96 278.474L1345.56 271.74L1329.83 303.042C1327.97 306.743 1329.47 311.251 1333.17 313.11ZM1370.03 256.432L1363.16 270.113L1349.76 263.38L1356.63 249.699L1370.03 256.432ZM1374.23 248.071L1386.33 223.99C1388.19 220.289 1386.69 215.781 1382.99 213.922C1379.29 212.062 1374.78 213.556 1372.93 217.257L1360.83 241.338L1374.23 248.071Z" fill="#2D0A7D"/>
<path fill-rule="evenodd" clip-rule="evenodd" d="M326.914 95.7938C330.615 97.6531 335.123 96.1598 336.982 92.4585L378.503 9.80119L365.1 3.06799L323.578 85.7253C321.719 89.4266 323.212 93.9345 326.914 95.7938ZM404.539 -42.0272L388.379 -9.85784L374.975 -16.591L391.135 -48.7604L404.539 -42.0272ZM414.414 -61.6862L447.407 -127.365C449.266 -131.067 447.773 -135.574 444.071 -137.434C440.37 -139.293 435.862 -137.8 434.003 -134.098L401.01 -68.4194L414.414 -61.6862Z" fill="#2D0A7D"/>
<path fill-rule="evenodd" clip-rule="evenodd" d="M398.971 65.9647C402.672 67.824 407.18 66.3307 409.039 62.6294L437.662 5.64999L424.258 -1.08321L395.635 55.8962C393.776 59.5975 395.269 64.1054 398.971 65.9647ZM456.215 -31.2851L444.699 -8.35989L431.295 -15.0931L442.812 -38.0183L456.215 -31.2851ZM463.253 -45.295L485.798 -90.1749C487.657 -93.8763 486.164 -98.3841 482.462 -100.243C478.761 -102.103 474.253 -100.609 472.394 -96.9081L449.849 -52.0282L463.253 -45.295Z" fill="#2D0A7D"/>
<path fill-rule="evenodd" clip-rule="evenodd" d="M304.208 40.744C307.91 42.6033 312.417 41.11 314.277 37.4087L330 6.10719L316.597 -0.626011L300.873 30.6755C299.014 34.3768 300.507 38.8847 304.208 40.744ZM341.073 -15.9346L334.2 -2.25355L320.796 -8.98675L327.669 -22.6678L341.073 -15.9346ZM345.273 -24.2953L357.369 -48.3762C359.229 -52.0776 357.735 -56.5854 354.034 -58.4447C350.333 -60.3041 345.825 -58.8108 343.965 -55.1094L331.869 -31.0285L345.273 -24.2953Z" fill="#2D0A7D"/>
</svg>
