<svg width="1920" height="853" viewBox="0 0 1920 853" fill="none" xmlns="http://www.w3.org/2000/svg">
<path fill-rule="evenodd" clip-rule="evenodd" d="M15.0425 853C10.0045 852.998 4.98752 852.963 0 852.898L0 -13H1920V688.098C1840.31 713.979 1757.12 736.005 1692.62 741.967C1657.24 745.237 1629.26 748.154 1605.12 750.67C1507.36 760.86 1472.5 764.494 1264.28 758.476C1150.51 755.188 1058.5 748.184 973.754 741.733C868.158 733.695 773.855 726.517 662.836 728.46C529.876 730.786 419.55 765.578 317.95 797.617C266.635 813.799 217.547 829.279 168.893 839.52C121.737 849.446 67.699 852.982 15.847 853C15.5788 853 15.3106 853 15.0425 853Z" fill="#26076C"/>
<mask id="mask0_951_107" style="mask-type:alpha" maskUnits="userSpaceOnUse" x="0" y="-13" width="1920" height="866">
<path fill-rule="evenodd" clip-rule="evenodd" d="M15.0425 853C10.0045 852.998 4.98752 852.963 0 852.898V-13H1920V688.098C1840.31 713.979 1757.12 736.005 1692.62 741.967C1657.24 745.237 1629.26 748.154 1605.12 750.67C1507.36 760.86 1472.5 764.494 1264.28 758.476C1150.51 755.188 1058.5 748.184 973.754 741.733C868.158 733.695 773.855 726.517 662.836 728.46C529.876 730.786 419.55 765.578 317.95 797.617C266.635 813.799 217.547 829.279 168.893 839.52C121.737 849.446 67.699 852.982 15.847 853C15.5788 853 15.3106 853 15.0425 853Z" fill="#26076C"/>
</mask>
<g mask="url(#mask0_951_107)">
<path fill-rule="evenodd" clip-rule="evenodd" d="M1584.72 355.611C1560.52 402.161 1578.64 459.519 1625.19 483.723L1796.51 572.806C1843.07 597.011 1900.42 578.895 1924.63 532.345L2017.82 353.113C2042.02 306.563 2023.91 249.205 1977.36 225.001L1806.03 135.917C1759.48 111.713 1702.12 129.829 1677.92 176.379L1584.72 355.611ZM1598.58 351.059C1574.37 397.61 1592.49 454.968 1639.04 479.172L1792.28 558.851C1838.83 583.055 1896.19 564.94 1920.4 518.389L2003.96 357.665C2028.17 311.114 2010.05 253.756 1963.5 229.552L1810.26 149.873C1763.71 125.669 1706.35 143.784 1682.15 190.335L1598.58 351.059Z" fill="#2D0A7D"/>
<path d="M667 755.5C667 845.799 593.799 919 503.5 919C413.201 919 340 845.799 340 755.5C340 665.201 413.201 592 503.5 592C593.799 592 667 665.201 667 755.5ZM356.695 755.5C356.695 836.578 422.422 902.305 503.5 902.305C584.578 902.305 650.305 836.578 650.305 755.5C650.305 674.422 584.578 608.695 503.5 608.695C422.422 608.695 356.695 674.422 356.695 755.5Z" fill="#2D0A7D"/>
<path d="M101 330.5C101 398.155 46.1549 453 -21.5 453C-89.1549 453 -144 398.155 -144 330.5C-144 262.845 -89.1549 208 -21.5 208C46.1549 208 101 262.845 101 330.5ZM-131.492 330.5C-131.492 391.247 -82.2467 440.492 -21.5 440.492C39.2467 440.492 88.4916 391.247 88.4916 330.5C88.4916 269.753 39.2467 220.508 -21.5 220.508C-82.2467 220.508 -131.492 269.753 -131.492 330.5Z" fill="#2D0A7D"/>
<path d="M1696 758.5C1696 848.799 1622.8 922 1532.5 922C1442.2 922 1369 848.799 1369 758.5C1369 668.201 1442.2 595 1532.5 595C1622.8 595 1696 668.201 1696 758.5ZM1385.69 758.5C1385.69 839.578 1451.42 905.305 1532.5 905.305C1613.58 905.305 1679.31 839.578 1679.31 758.5C1679.31 677.422 1613.58 611.695 1532.5 611.695C1451.42 611.695 1385.69 677.422 1385.69 758.5Z" fill="#2D0A7D"/>
<path d="M1500 75.5C1500 165.799 1426.8 239 1336.5 239C1246.2 239 1173 165.799 1173 75.5C1173 -14.7986 1246.2 -88 1336.5 -88C1426.8 -88 1500 -14.7986 1500 75.5ZM1189.69 75.5C1189.69 156.578 1255.42 222.305 1336.5 222.305C1417.58 222.305 1483.31 156.578 1483.31 75.5C1483.31 -5.57825 1417.58 -71.3052 1336.5 -71.3052C1255.42 -71.3052 1189.69 -5.57825 1189.69 75.5Z" fill="#2D0A7D"/>
<path d="M1196 512.5C1196 564.139 1154.14 606 1102.5 606C1050.86 606 1009 564.139 1009 512.5C1009 460.861 1050.86 419 1102.5 419C1154.14 419 1196 460.861 1196 512.5ZM1018.55 512.5C1018.55 558.866 1056.13 596.453 1102.5 596.453C1148.87 596.453 1186.45 558.866 1186.45 512.5C1186.45 466.134 1148.87 428.547 1102.5 428.547C1056.13 428.547 1018.55 466.134 1018.55 512.5Z" fill="#2D0A7D"/>
<path fill-rule="evenodd" clip-rule="evenodd" d="M657.031 -138.028C607.939 -156.541 553.133 -131.753 534.619 -82.6608L412.171 242.027C393.657 291.119 418.446 345.925 467.538 364.439L803.908 491.293C853 509.807 907.806 485.018 926.32 435.926L1048.77 111.238C1067.28 62.1459 1042.49 7.34047 993.401 -11.1734L657.031 -138.028ZM675.384 -98.6617C626.292 -117.176 571.486 -92.3872 552.972 -43.2952L451.948 224.584C433.434 273.676 458.223 328.482 507.315 346.995L785.555 451.927C834.647 470.441 889.453 445.653 907.967 396.561L1008.99 128.681C1027.5 79.5894 1002.72 24.7839 953.624 6.27005L675.384 -98.6617Z" fill="#2D0A7D"/>
<path fill-rule="evenodd" clip-rule="evenodd" d="M151.5 503C147.358 503 144 506.358 144 510.5V603H159V510.5C159 506.358 155.642 503 151.5 503ZM144 661V625H159V661H144ZM144 683V756.5C144 760.642 147.358 764 151.5 764C155.642 764 159 760.642 159 756.5V683H144Z" fill="#2D0A7D"/>
<path fill-rule="evenodd" clip-rule="evenodd" d="M100.5 562C96.3579 562 93 565.358 93 569.5V633.264H108V569.5C108 565.358 104.642 562 100.5 562ZM93 674.598V648.943H108V674.598H93ZM93 690.276V740.5C93 744.642 96.3579 748 100.5 748C104.642 748 108 744.642 108 740.5V690.276H93Z" fill="#2D0A7D"/>
<path fill-rule="evenodd" clip-rule="evenodd" d="M196.5 542C192.358 542 189 545.358 189 549.5V584.529H204V549.5C204 545.358 200.642 542 196.5 542ZM189 609.195V593.885H204V609.195H189ZM189 618.552V645.5C189 649.642 192.358 653 196.5 653C200.642 653 204 649.642 204 645.5V618.552H189Z" fill="#2D0A7D"/>
<path fill-rule="evenodd" clip-rule="evenodd" d="M868.986 686.142C866.226 689.231 866.491 693.972 869.58 696.732L938.545 758.377L948.541 747.194L879.576 685.549C876.488 682.788 871.746 683.054 868.986 686.142ZM981.788 797.03L954.947 773.039L964.944 761.855L991.784 785.847L981.788 797.03ZM998.19 811.691L1052.99 860.674C1056.08 863.434 1060.82 863.169 1063.58 860.081C1066.34 856.992 1066.07 852.251 1062.99 849.491L1008.19 800.508L998.19 811.691Z" fill="#2D0A7D"/>
<path fill-rule="evenodd" clip-rule="evenodd" d="M878.987 763.486C876.226 766.574 876.492 771.315 879.58 774.076L927.121 816.57L937.117 805.387L889.577 762.892C886.488 760.132 881.747 760.397 878.987 763.486ZM957.938 844.116L938.81 827.019L948.807 815.835L967.934 832.932L957.938 844.116ZM969.627 854.564L1007.07 888.035C1010.16 890.796 1014.9 890.53 1017.66 887.442C1020.42 884.353 1020.16 879.612 1017.07 876.852L979.623 843.381L969.627 854.564Z" fill="#2D0A7D"/>
<path fill-rule="evenodd" clip-rule="evenodd" d="M928.053 678.583C925.292 681.671 925.558 686.412 928.646 689.173L954.763 712.517L964.759 701.333L938.643 677.989C935.554 675.229 930.813 675.494 928.053 678.583ZM973.153 728.955L961.738 718.752L971.735 707.569L983.15 717.772L973.153 728.955ZM980.129 735.191L1000.22 753.15C1003.31 755.91 1008.05 755.644 1010.81 752.556C1013.57 749.468 1013.31 744.727 1010.22 741.966L990.125 724.007L980.129 735.191Z" fill="#2D0A7D"/>
<path fill-rule="evenodd" clip-rule="evenodd" d="M1302.87 487.16C1306.57 489.02 1311.08 487.526 1312.94 483.825L1354.46 401.168L1341.06 394.434L1299.54 477.092C1297.68 480.793 1299.17 485.301 1302.87 487.16ZM1380.5 349.339L1364.34 381.509L1350.93 374.775L1367.09 342.606L1380.5 349.339ZM1390.37 329.68L1423.37 264.001C1425.23 260.3 1423.73 255.792 1420.03 253.933C1416.33 252.073 1411.82 253.567 1409.96 257.268L1376.97 322.947L1390.37 329.68Z" fill="#2D0A7D"/>
<path fill-rule="evenodd" clip-rule="evenodd" d="M1374.93 457.331C1378.63 459.19 1383.14 457.697 1385 453.996L1413.62 397.016L1400.22 390.283L1371.6 447.263C1369.74 450.964 1371.23 455.472 1374.93 457.331ZM1432.18 360.081L1420.66 383.007L1407.26 376.273L1418.77 353.348L1432.18 360.081ZM1439.21 346.071L1461.76 301.192C1463.62 297.49 1462.12 292.982 1458.42 291.123C1454.72 289.264 1450.21 290.757 1448.35 294.458L1425.81 339.338L1439.21 346.071Z" fill="#2D0A7D"/>
<path fill-rule="evenodd" clip-rule="evenodd" d="M1280.17 432.11C1283.87 433.97 1288.38 432.476 1290.24 428.775L1305.96 397.474L1292.56 390.74L1276.83 422.042C1274.97 425.743 1276.47 430.251 1280.17 432.11ZM1317.03 375.432L1310.16 389.113L1296.76 382.38L1303.63 368.699L1317.03 375.432ZM1321.23 367.071L1333.33 342.99C1335.19 339.289 1333.69 334.781 1329.99 332.922C1326.29 331.062 1321.78 332.556 1319.93 336.257L1307.83 360.338L1321.23 367.071Z" fill="#2D0A7D"/>
<path fill-rule="evenodd" clip-rule="evenodd" d="M273.914 214.794C277.615 216.653 282.123 215.16 283.982 211.458L325.503 128.801L312.1 122.068L270.578 204.725C268.719 208.427 270.212 212.934 273.914 214.794ZM351.539 76.9728L335.379 109.142L321.975 102.409L338.135 70.2396L351.539 76.9728ZM361.414 57.3138L394.407 -8.3652C396.266 -12.0666 394.773 -16.5744 391.071 -18.4337C387.37 -20.2931 382.862 -18.7998 381.003 -15.0984L348.01 50.5806L361.414 57.3138Z" fill="#2D0A7D"/>
<path fill-rule="evenodd" clip-rule="evenodd" d="M345.971 184.965C349.672 186.824 354.18 185.331 356.039 181.629L384.662 124.65L371.258 117.917L342.635 174.896C340.776 178.598 342.269 183.105 345.971 184.965ZM403.215 87.7149L391.699 110.64L378.295 103.907L389.812 80.9817L403.215 87.7149ZM410.253 73.705L432.798 28.8251C434.657 25.1237 433.164 20.6159 429.462 18.7566C425.761 16.8972 421.253 18.3905 419.394 22.0919L396.849 66.9718L410.253 73.705Z" fill="#2D0A7D"/>
<path fill-rule="evenodd" clip-rule="evenodd" d="M251.208 159.744C254.91 161.603 259.417 160.11 261.277 156.409L277 125.107L263.597 118.374L247.873 149.675C246.014 153.377 247.507 157.885 251.208 159.744ZM288.073 103.065L281.2 116.746L267.796 110.013L274.669 96.3322L288.073 103.065ZM292.273 94.7047L304.369 70.6238C306.229 66.9224 304.735 62.4146 301.034 60.5553C297.333 58.6959 292.825 60.1892 290.965 63.8906L278.869 87.9715L292.273 94.7047Z" fill="#2D0A7D"/>
</g>
</svg>
