<svg width="49" height="34" viewBox="0 0 49 34" fill="none" xmlns="http://www.w3.org/2000/svg">
<path d="M0.98 0.615997H22.804V6.776H14.928V33H8.548V6.776H0.98V0.615997ZM46.2533 8.448C45.0213 7.77333 43.7599 7.216 42.4693 6.776C41.2079 6.336 40.0199 6.116 38.9053 6.116C37.5266 6.116 36.4413 6.39467 35.6493 6.952C34.8573 7.50933 34.4613 8.34533 34.4613 9.46C34.4613 10.2227 34.7546 10.912 35.3413 11.528C35.9573 12.1147 36.7346 12.6427 37.6733 13.112C38.6413 13.5813 39.6386 14.0067 40.6653 14.388C41.6039 14.74 42.5279 15.1653 43.4373 15.664C44.3759 16.1333 45.2119 16.7347 45.9453 17.468C46.6786 18.172 47.2653 19.0667 47.7053 20.152C48.1453 21.208 48.3653 22.5133 48.3653 24.068C48.3653 25.7107 47.9399 27.236 47.0893 28.644C46.2386 30.052 44.9919 31.196 43.3493 32.076C41.7066 32.9267 39.6826 33.352 37.2773 33.352C36.0453 33.352 34.7839 33.2347 33.4933 33C32.2319 32.736 30.9853 32.3547 29.7533 31.856C28.5213 31.328 27.3333 30.668 26.1893 29.876L29.0053 24.904C29.7679 25.4613 30.5893 25.96 31.4693 26.4C32.3786 26.8107 33.2879 27.1333 34.1973 27.368C35.1066 27.6027 35.9426 27.72 36.7053 27.72C37.4679 27.72 38.2306 27.6173 38.9933 27.412C39.7853 27.1773 40.4306 26.796 40.9293 26.268C41.4573 25.74 41.7213 25.0067 41.7213 24.068C41.7213 23.4227 41.5013 22.836 41.0613 22.308C40.6506 21.78 40.0786 21.296 39.3453 20.856C38.6413 20.416 37.8639 20.0347 37.0133 19.712C36.0159 19.3307 34.9893 18.8907 33.9333 18.392C32.8773 17.8933 31.8799 17.292 30.9413 16.588C30.0319 15.8547 29.2839 14.96 28.6973 13.904C28.1399 12.8187 27.8613 11.4987 27.8613 9.944C27.8613 8.06667 28.2719 6.43867 29.0933 5.06C29.9439 3.68133 31.1319 2.596 32.6573 1.804C34.1826 0.982665 35.9426 0.527998 37.9373 0.44C40.5479 0.44 42.6599 0.747999 44.2733 1.364C45.9159 1.98 47.3826 2.71333 48.6733 3.564L46.2533 8.448Z" fill="white"/>
</svg>
