<svg width="83" height="55" viewBox="0 0 83 55" fill="none" xmlns="http://www.w3.org/2000/svg">
<path d="M59.0833 55H22.9167C17.4333 55 13 50.5342 13 45.0107V9.98932C13 4.46581 17.4333 0 22.9167 0H59.0833C64.5667 0 69 4.46581 69 9.98932V45.0107C69 50.5342 64.5667 55 59.0833 55Z" fill="#FF26BE"/>
<path d="M58.4397 53H23.5839C18.8545 53 15 49.1154 15 44.3491V10.6509C15 5.88458 18.8545 2 23.5839 2H58.416C63.1691 2 66.9999 5.88458 66.9999 10.6509V44.3252C67.0235 49.1154 63.1691 53 58.4397 53Z" fill="#2E001F"/>
<path d="M35.9601 27.616L42.6453 37.4515C42.7646 37.5977 42.693 37.744 42.502 37.744H38.3477C38.085 37.744 37.9657 37.6891 37.8463 37.5063C36.3182 35.0931 34.7663 32.68 33.1667 30.084H33.1189C31.6864 32.5337 30.1106 35.1114 28.5826 37.5246C28.4632 37.6708 28.3438 37.7257 28.1528 37.7257H24.2134C23.9746 37.7257 23.9507 37.5794 24.0701 37.4697L30.612 27.9268L24.285 18.2742C24.1417 18.128 24.285 18.0183 24.4282 18.0183H28.5348C28.7736 18.0183 28.8691 18.0548 28.9646 18.2194C30.4687 20.6325 31.9968 23.1188 33.4293 25.5502H33.4771C34.8618 23.1371 36.3899 20.6325 37.8702 18.2377C37.9895 18.0914 38.0612 18 38.2999 18H42.1439C42.3349 18 42.4065 18.1097 42.2871 18.2559L35.9601 27.616ZM43.8152 30.5959C43.8152 26.3363 47.5159 23.0091 53.3892 23.0091C53.8906 23.0091 54.1533 23.0091 54.6308 23.0457V18.2011C54.6308 18.0914 54.7502 18.0183 54.8695 18.0183H58.6419C58.8329 18.0183 58.8806 18.0731 58.8806 18.1645V34.9469C58.8806 35.4405 58.8806 36.0621 59 36.7385C59 36.8482 58.9523 36.8847 58.809 36.9396C56.8035 37.6708 54.7024 37.9999 52.6969 37.9999C47.5159 38.0182 43.8152 35.5685 43.8152 30.5959ZM54.6308 25.9159C54.2965 25.8062 53.819 25.733 53.246 25.733C50.2377 25.733 48.1366 27.5063 48.1366 30.4497C48.1366 33.8134 50.2854 35.1663 52.9834 35.1663C53.5564 35.1663 54.1771 35.1114 54.6308 34.9652V25.9159Z" fill="#FFD9F2"/>
</svg>
