<svg width="1147" height="901" viewBox="0 0 1147 901" fill="none" xmlns="http://www.w3.org/2000/svg">
<g clip-path="url(#clip0_807_189)">
<g filter="url(#filter0_d_807_189)">
<path d="M177.091 401.328C56.8134 305.507 44.453 108.045 170.483 19.9259L733.831 -373.962C802.884 -422.243 894.372 -422.762 961.708 -372.113C1190.35 -200.128 1673.43 196.527 1520.38 372.863C1322.04 601.392 1377.94 531.526 1130.94 612.803C1052.24 638.701 973.283 696.788 902.223 763.921C778.542 880.767 540.637 854.75 450.837 710.23C423.95 666.96 394.326 623.765 362.112 582.916C308.187 514.536 242.316 453.29 177.091 401.328Z" fill="url(#paint0_linear_807_189)" fill-opacity="0.2" shape-rendering="crispEdges"/>
</g>
<g filter="url(#filter1_d_807_189)">
<path d="M172.692 146.761C102.545 9.91157 172.596 -175.121 323.731 -203.522L999.299 -330.475C1082.11 -346.037 1165.69 -308.835 1206.2 -234.951C1343.73 15.9295 1620.6 576.322 1408.52 673.988C1133.67 800.562 1213.38 759.914 954.828 732.269C872.443 723.46 776.571 743.878 684.17 775.792C523.346 831.339 317.263 709.661 294.943 540.984C288.261 490.481 279.053 438.919 266.519 388.429C245.537 303.91 210.731 220.973 172.692 146.761Z" fill="url(#paint1_linear_807_189)"/>
</g>
<g clip-path="url(#clip1_807_189)">
<path d="M441.651 485.506L440.823 484.641L446.03 479.672L446.858 480.538L441.651 485.506ZM452.051 475.543L451.208 474.688C452.898 473.02 454.598 471.303 456.254 469.58L457.118 470.408C455.455 472.141 453.75 473.868 452.051 475.543ZM462.046 465.14L461.159 464.332C462.75 462.585 464.352 460.776 465.923 458.956L466.83 459.743C465.253 461.566 463.644 463.384 462.046 465.14ZM471.476 454.224L470.55 453.463C472.047 451.64 473.558 449.75 475.038 447.858L475.983 448.592C474.496 450.498 472.98 452.391 471.476 454.224ZM480.354 442.859L479.393 442.141C480.801 440.248 482.222 438.295 483.616 436.33L484.593 437.022C483.194 438.997 481.769 440.957 480.354 442.859ZM488.703 431.102L487.709 430.428C489.052 428.443 490.377 426.448 491.68 424.439L492.685 425.088C491.378 427.104 490.051 429.113 488.703 431.102ZM554.428 422.784C552.214 422.784 550.021 422.364 547.963 421.55L548.409 420.439C550.324 421.193 552.366 421.583 554.428 421.583C554.726 421.554 554.947 421.577 555.205 421.564L555.262 422.764C554.982 422.777 554.652 422.758 554.428 422.784ZM562.391 420.73L561.793 419.694C563.785 418.536 565.439 416.868 566.577 414.863L567.616 415.456C566.375 417.647 564.569 419.466 562.391 420.73ZM496.545 419.002L495.527 418.367C496.788 416.335 498.031 414.285 499.256 412.224L500.288 412.839C499.06 414.904 497.812 416.96 496.545 419.002ZM541.885 417.329C540.214 415.502 538.874 413.398 537.936 411.105L539.043 410.641C539.927 412.804 541.186 414.79 542.764 416.514L541.885 417.329ZM569.604 408.309L568.404 408.283L568.407 407.961C568.417 406.208 568.054 404.473 567.349 402.869C567.167 402.469 566.97 402.079 566.752 401.698L567.795 401.106C568.03 401.52 568.245 401.943 568.443 402.376C569.22 404.135 569.617 406.039 569.607 407.961L569.604 408.309ZM504.39 407.051L503.47 406.28C505.032 404.417 506.743 402.681 508.581 401.087L509.367 401.995C507.576 403.547 505.911 405.237 504.39 407.051ZM536.081 404.004C535.943 402.853 535.874 401.692 535.874 400.531C535.874 399.243 535.956 397.956 536.119 396.678L537.309 396.827C537.153 398.056 537.075 399.292 537.075 400.531C537.075 401.643 537.139 402.756 537.272 403.861L536.081 404.004ZM515.086 397.797L514.454 396.775C516.521 395.497 518.682 394.376 520.914 393.416L521.388 394.518C519.21 395.455 517.103 396.552 515.086 397.797ZM562.141 396.557C560.258 395.151 558.196 394.005 556.012 393.147L556.46 392.03C558.746 392.931 560.897 394.131 562.865 395.604L562.141 396.557ZM528.101 392.178L527.784 391.02C530.128 390.382 532.514 389.913 534.923 389.611L535.072 390.802C532.719 391.094 530.39 391.557 528.101 392.178ZM549.217 391.183C546.889 390.746 544.532 390.497 542.165 390.445L542.195 389.244C544.627 389.3 547.049 389.556 549.442 390.005L549.217 391.183ZM538.966 389.972L537.836 389.566C538.664 387.266 539.727 385.059 541.001 382.978L542.026 383.606C540.791 385.618 539.766 387.752 538.966 389.972ZM546.298 377.977L545.421 377.161C545.768 376.783 546.126 376.413 546.493 376.052C547.863 374.699 549.329 373.451 550.884 372.316L551.592 373.285C550.087 374.384 548.661 375.594 547.335 376.905C546.98 377.256 546.636 377.613 546.298 377.977ZM557.653 369.61L557.12 368.537C559.298 367.458 561.565 366.556 563.894 365.845L564.241 366.993C561.978 367.685 559.774 368.56 557.653 369.61ZM571.183 365.203L570.888 364.044C573.233 363.442 575.567 362.812 577.824 362.174L578.149 363.327C575.882 363.968 573.542 364.601 571.183 365.203ZM585.063 361.259L584.702 360.114C587.018 359.386 589.31 358.629 591.518 357.858L591.91 358.989C589.693 359.763 587.388 360.528 585.063 361.259ZM598.685 356.497L598.252 355.378C600.498 354.507 602.732 353.592 604.892 352.659L605.366 353.761C603.195 354.698 600.945 355.619 598.685 356.497ZM611.937 350.77L611.421 349.691L617.892 346.545L618.415 347.626L611.937 350.77ZM624.89 344.477L624.367 343.398L630.84 340.254L631.363 341.333L624.89 344.477ZM637.838 338.186L637.312 337.105L643.786 333.958L644.309 335.037L637.838 338.186ZM650.784 331.89L650.259 330.811L656.734 327.665L657.257 328.745L650.784 331.89ZM663.729 325.597L663.206 324.518L669.68 321.371L670.203 322.45L663.729 325.597Z" fill="#9192FF"/>
<path d="M427.15 471.166H297.062L297.077 470.705C297.423 459.697 306.838 451.074 318.509 451.074C321.826 451.071 325.105 451.801 328.109 453.209C328.196 444.785 332.514 437.111 339.504 433.055C342.103 431.56 344.975 430.594 347.95 430.216C350.925 429.839 353.947 430.061 356.837 430.861C360.081 431.745 363.117 433.264 365.768 435.332C368.42 437.396 370.633 439.973 372.281 442.902C374.173 446.174 375.335 449.816 375.684 453.575C381.224 451.153 387.73 449.874 394.541 449.874C412.563 449.874 427.224 458.956 427.224 470.119C427.227 470.334 427.218 470.554 427.196 470.769L427.15 471.166ZM297.997 470.269H426.324V470.119C426.324 459.451 412.067 450.774 394.541 450.774C387.615 450.774 381.022 452.117 375.474 454.657L374.88 454.926L374.838 454.277C374.577 450.426 373.435 446.69 371.502 443.351C369.913 440.522 367.776 438.036 365.219 436.043C362.662 434.051 359.733 432.583 356.604 431.732C353.828 430.961 350.926 430.749 348.068 431.11C345.209 431.471 342.453 432.399 339.955 433.833C333.045 437.842 328.854 445.542 329.011 453.926L329.026 454.68L328.355 454.334C325.306 452.78 321.931 451.971 318.509 451.974C307.493 451.974 298.576 459.974 297.997 470.269Z" fill="#9192FF"/>
<path d="M633.53 458.208C633.53 465.57 636.457 472.63 641.659 477.835C646.865 483.041 653.928 485.965 661.29 485.965H969.626C976.988 485.965 984.052 483.041 989.257 477.835C994.463 472.63 997.387 465.57 997.387 458.208V270.606H633.53V458.208Z" fill="#F5F5F5"/>
<path d="M622.474 318.442C626.726 304.804 640.182 294.339 654.887 293.231C669.587 292.122 684.592 300.443 691.027 313.275C698.852 313.203 706.556 317.542 710.358 324.154C712.221 327.474 713.141 331.236 713.025 335.041C712.905 338.846 711.75 342.547 709.685 345.743C719.002 347.359 727.365 353.489 731.488 361.725C733.516 365.848 734.522 370.404 734.422 375.003C734.322 379.598 733.11 384.103 730.902 388.136C741.155 382.924 754.267 383.398 764.104 389.336C773.944 395.278 780.14 406.46 779.795 417.656C786.182 407.64 798.428 401.394 810.6 401.95C822.775 402.505 834.381 409.835 839.798 420.39C845.512 403.289 860.748 389.485 878.779 385.076C896.811 380.662 917.039 385.789 930.534 398.191C950.829 401.364 965.617 423.402 960.33 442.58C971.295 451.653 976.899 466.403 974.606 480.158C972.313 493.913 962.206 506.194 948.858 511.446L599.678 511.221L569.908 378.001L622.474 318.442Z" fill="#DBCBFF" fill-opacity="0.99"/>
<path d="M608.949 362.688C613.069 349.046 626.076 338.57 640.283 337.448C654.487 336.33 668.977 344.638 675.184 357.466C678.986 357.427 682.728 358.416 686.013 360.328C689.301 362.24 692.01 365.004 693.854 368.326C695.697 371.652 696.611 375.416 696.494 379.214C696.374 383.016 695.231 386.712 693.186 389.918C697.706 390.725 701.972 392.592 705.631 395.368C709.289 398.141 712.24 401.746 714.236 405.882C716.235 410.015 717.219 414.566 717.119 419.158C717.019 423.75 715.828 428.25 713.65 432.293C718.636 429.669 724.218 428.393 729.847 428.601C735.475 428.806 740.951 430.484 745.729 433.469C750.506 436.45 754.417 440.632 757.074 445.601C759.731 450.567 761.038 456.145 760.866 461.773C767.044 451.751 778.88 445.498 790.642 446.044C802.4 446.587 813.61 453.91 818.835 464.458C824.37 447.358 839.102 433.542 856.525 429.116C873.949 424.69 893.488 429.798 906.514 442.187C926.119 445.347 940.395 467.372 935.27 486.554C945.855 495.62 951.255 510.363 949.031 524.118C946.807 537.873 937.033 550.166 924.129 555.43L586.77 555.478L558.114 422.284L608.949 362.688Z" fill="#F1F1FA"/>
<g opacity="0.7">
<path d="M877.158 276.612C776.097 371.65 704.432 397.279 614.147 406.441L608.151 502.409L702.92 534.801C785.694 532.401 865.172 412.57 914.267 309.773L877.158 276.612Z" fill="#FFF2E0"/>
</g>
<path d="M745.143 344.854C745.273 347.859 745.14 352.931 742.139 354.668C737.129 357.572 733.186 350.525 731.346 346.988C729.152 342.757 729.714 337.512 734.677 335.629C741.232 333.138 744.902 339.249 745.143 344.854Z" fill="#D1D1FF"/>
<path d="M982.727 436.079C982.856 439.084 982.724 444.156 979.722 445.893C974.712 448.794 970.77 441.75 968.929 438.21C966.735 433.982 967.298 428.737 972.26 426.851C978.815 424.363 982.486 430.474 982.727 436.079Z" fill="#D1D1FF"/>
<path d="M718.515 315.065C720.834 315.065 722.713 313.186 722.713 310.867C722.713 308.548 720.834 306.668 718.515 306.668C716.196 306.668 714.316 308.548 714.316 310.867C714.316 313.186 716.196 315.065 718.515 315.065Z" fill="#D1D1FF"/>
<path d="M934.893 392.37C938.053 390.799 939.345 386.961 937.771 383.798C936.2 380.637 932.362 379.348 929.202 380.919C926.042 382.491 924.751 386.328 926.322 389.488C927.897 392.652 931.733 393.941 934.893 392.37Z" fill="#D1D1FF"/>
<path d="M969.626 197.925H661.29C657.644 197.925 654.036 198.642 650.668 200.038C647.299 201.433 644.237 203.477 641.659 206.055C639.081 208.633 637.039 211.693 635.644 215.062C634.248 218.43 633.53 222.04 633.53 225.686V270.607H997.387V225.686C997.387 222.04 996.668 218.43 995.273 215.062C993.877 211.693 991.835 208.633 989.257 206.055C986.679 203.477 983.617 201.433 980.249 200.038C976.88 198.642 973.272 197.925 969.626 197.925Z" fill="#F9F9F9"/>
<path d="M725.773 245.028C731.718 239.084 731.718 229.448 725.773 223.504C719.828 217.561 710.195 217.561 704.25 223.504C698.306 229.448 698.306 239.084 704.25 245.028C710.195 250.971 719.828 250.971 725.773 245.028Z" fill="#EBEBFF"/>
<path d="M830.863 219.737H770.265C762.242 219.737 755.739 226.242 755.739 234.264C755.739 242.287 762.242 248.792 770.265 248.792H830.863C838.887 248.792 845.391 242.287 845.391 234.264C845.391 226.242 838.887 219.737 830.863 219.737Z" fill="#EBEBFF"/>
<path d="M969.626 486.567H661.29C653.769 486.56 646.564 483.569 641.248 478.252C635.931 472.935 632.939 465.725 632.93 458.208V270.008H997.984V458.208C997.977 465.725 994.986 472.935 989.669 478.252C984.352 483.569 977.144 486.56 969.626 486.567ZM634.128 271.207V458.208C634.138 465.407 637 472.312 642.092 477.404C647.184 482.496 654.087 485.361 661.29 485.368H969.626C976.826 485.361 983.729 482.496 988.821 477.404C993.913 472.312 996.778 465.407 996.785 458.208V271.207H634.128Z" fill="#9192FF"/>
<path d="M997.984 271.205H632.93V225.684C632.939 218.164 635.931 210.957 641.248 205.64C646.564 200.323 653.769 197.331 661.29 197.323H969.626C977.144 197.331 984.352 200.323 989.669 205.64C994.986 210.957 997.977 218.164 997.984 225.684V271.205ZM634.128 270.005H996.785V225.684C996.778 218.483 993.913 211.58 988.821 206.488C983.729 201.395 976.826 198.532 969.626 198.524H661.29C654.087 198.532 647.184 201.395 642.092 206.488C637.003 211.58 634.138 218.483 634.128 225.684V270.005Z" fill="#9192FF"/>
<path d="M685.1 237.294C686.771 229.056 681.447 221.021 673.211 219.35C664.975 217.678 656.939 223.001 655.268 231.239C653.597 239.476 658.92 247.509 667.156 249.182C675.392 250.853 683.428 245.531 685.1 237.294Z" fill="#D2C9F9"/>
<path d="M715.01 250.084C711.882 250.084 708.821 249.156 706.219 247.417C703.618 245.679 701.593 243.209 700.396 240.319C699.195 237.43 698.884 234.246 699.495 231.178C700.104 228.109 701.613 225.292 703.823 223.08C706.034 220.867 708.853 219.36 711.923 218.75C714.993 218.14 718.173 218.452 721.065 219.649C723.956 220.846 726.423 222.875 728.163 225.476C729.903 228.077 730.829 231.135 730.829 234.264C730.823 238.458 729.158 242.479 726.193 245.444C723.225 248.409 719.205 250.079 715.01 250.084ZM715.01 219.645C712.119 219.645 709.293 220.503 706.887 222.109C704.484 223.716 702.61 225.999 701.501 228.67C700.396 231.342 700.107 234.281 700.673 237.116C701.236 239.952 702.626 242.556 704.671 244.601C706.716 246.646 709.322 248.039 712.158 248.603C714.993 249.167 717.932 248.878 720.606 247.771C723.275 246.664 725.557 244.792 727.164 242.387C728.769 239.983 729.629 237.156 729.629 234.264C729.626 230.389 728.084 226.671 725.344 223.931C722.603 221.19 718.885 219.65 715.01 219.645Z" fill="#8F8CFF"/>
<path d="M830.863 249.392H770.265C766.252 249.392 762.406 247.799 759.57 244.962C756.731 242.125 755.139 238.277 755.139 234.266C755.139 230.254 756.731 226.407 759.57 223.57C762.406 220.733 766.252 219.14 770.265 219.14H830.863C834.876 219.14 838.722 220.733 841.56 223.57C844.396 226.407 845.988 230.254 845.988 234.266C845.988 238.277 844.396 242.125 841.56 244.962C838.722 247.799 834.876 249.392 830.863 249.392ZM770.265 220.339C766.571 220.339 763.031 221.805 760.42 224.418C757.806 227.03 756.338 230.573 756.338 234.266C756.338 237.959 757.806 241.502 760.42 244.114C763.031 246.727 766.571 248.193 770.265 248.193H830.863C834.556 248.193 838.1 246.727 840.711 244.114C843.322 241.502 844.79 237.959 844.79 234.266C844.79 230.573 843.322 227.03 840.711 224.418C838.1 221.805 834.556 220.339 830.863 220.339H770.265Z" fill="#9192FF"/>
<path d="M830.871 336.415C816.2 353.675 794.101 370.163 768.028 392.442L803.558 378.075C799.189 385.277 792.823 395.351 789.257 399.67C797.446 395.915 810.634 387.645 815.005 383.252C814.985 389.397 807.553 399.655 804.311 405.264C823.285 389.115 840.563 369.382 846.173 352.022L830.871 336.415Z" fill="#E4DAFF"/>
<g opacity="0.4">
<path d="M835.037 337.352C826.386 348.819 813.439 359.871 798.141 374.759L818.851 364.933C816.255 369.695 812.48 376.361 810.377 379.229C815.156 376.675 822.867 371.105 825.437 368.18C825.373 372.2 820.978 379 819.05 382.708C830.184 371.915 840.365 358.799 843.768 347.377L835.037 337.352Z" fill="#EBEBFF"/>
</g>
<path d="M887.069 235.857C865.442 254.788 828.143 241.741 816.553 256.858L849.672 283.084L887.069 235.857Z" fill="#2079FD"/>
<path d="M816.553 256.858C815.74 259.022 815.527 261.367 815.938 263.642C816.35 265.918 817.371 268.038 818.891 269.78L842.361 296.661L849.672 283.084L816.553 256.858Z" fill="#D1D1FF"/>
<path d="M936.087 274.672C922.617 300.062 943.868 333.379 931.809 348.125L898.689 321.899L936.087 274.672Z" fill="#2079FD"/>
<path d="M931.809 348.125C929.886 349.414 927.656 350.157 925.347 350.276C923.038 350.398 920.739 349.891 918.693 348.81L887.151 332.128L898.689 321.899L931.809 348.125Z" fill="#D1D1FF"/>
<path d="M952.911 203.318L923.425 214.143L949.135 234.501L952.911 203.318Z" fill="#DEDEFD"/>
<path d="M949.135 234.501C945.015 281.16 910.541 324.697 868.669 348.88L830.511 318.697C846.521 268.323 876.341 232.275 923.425 214.144L949.135 234.501Z" fill="#C5C5FF"/>
<path d="M830.509 318.694L813.959 330.155L861.3 367.643L868.668 348.878L830.509 318.694Z" fill="#2079FD"/>
<path d="M914.445 272.119C924.157 270.965 931.093 262.156 929.939 252.444C928.784 242.732 919.974 235.794 910.262 236.949C900.553 238.103 893.617 246.912 894.771 256.624C895.926 266.336 904.736 273.274 914.445 272.119Z" fill="#EBEBFF"/>
<path d="M904.606 244.539L905.263 245.382C904.457 246.01 903.738 246.743 903.125 247.559L902.272 246.918C902.94 246.025 903.728 245.224 904.606 244.539ZM907.481 242.85C908.51 242.416 909.594 242.12 910.699 241.974L910.841 243.032C909.83 243.166 908.839 243.437 907.896 243.834L907.481 242.85ZM900.64 249.827L901.634 250.22C901.258 251.17 901.008 252.167 900.893 253.182L899.833 253.061C899.958 251.952 900.229 250.865 900.64 249.827ZM914.034 241.976C915.14 242.121 916.223 242.413 917.253 242.843L916.841 243.829C915.9 243.434 914.907 243.167 913.894 243.034L914.034 241.976ZM899.787 255.457L900.849 255.375C900.928 256.393 901.143 257.396 901.485 258.359L900.478 258.719C900.105 257.667 899.872 256.569 899.787 255.457ZM920.131 244.529C921.012 245.215 921.796 246.015 922.467 246.907L921.612 247.551C920.999 246.733 920.279 245.999 919.473 245.372L920.131 244.529ZM902.88 261.075C903.464 261.915 904.156 262.673 904.937 263.332L904.248 264.148C903.395 263.429 902.642 262.6 902.004 261.685L902.88 261.075ZM923.11 250.21L924.102 249.815C924.515 250.852 924.79 251.939 924.915 253.049L923.855 253.169C923.74 252.153 923.489 251.159 923.11 250.21ZM907.508 264.972C908.437 265.402 909.419 265.705 910.427 265.876L910.246 266.928C909.145 266.742 908.075 266.409 907.061 265.94L907.508 264.972ZM923.798 256.222L924.852 256.382C924.686 257.486 924.375 258.561 923.926 259.583L922.946 259.155C923.359 258.219 923.646 257.232 923.798 256.222ZM913.475 265.992C914.493 265.896 915.491 265.663 916.446 265.303L916.826 266.3C915.781 266.695 914.689 266.949 913.576 267.055L913.475 265.992ZM921.354 261.758L922.185 262.43C921.48 263.297 920.668 264.067 919.763 264.721L919.136 263.856C919.966 263.257 920.71 262.552 921.354 261.758Z" fill="#9192FF"/>
<path d="M861.022 318.49L861.867 319.158C862.466 319.631 862.851 320.321 862.939 321.077C863.025 321.834 862.81 322.595 862.336 323.192L829.127 365.131C828.653 365.728 827.962 366.113 827.205 366.201C826.449 366.289 825.688 366.073 825.09 365.6L824.248 364.931C823.649 364.458 823.264 363.768 823.176 363.012C823.09 362.256 823.305 361.494 823.779 360.897L856.988 318.958C857.462 318.361 858.153 317.976 858.91 317.888C859.666 317.801 860.427 318.017 861.022 318.49Z" fill="#1B1B43"/>
<path d="M474.124 436.146C470.218 424.245 462.493 413.967 452.146 406.906L447.99 404.068L454.003 475.03L479.824 453.517L474.124 436.146Z" fill="#E4DAFF"/>
<path d="M562.611 518.973L556.29 507.631C555.5 506.209 554.419 504.969 553.125 503.984C551.827 503.002 550.341 502.303 548.759 501.924L531.217 497.743L485.509 470.842L479.823 453.515L454.003 475.031L454.425 480.016C454.84 484.917 456.622 489.599 459.568 493.54C462.513 497.479 466.504 500.51 471.087 502.293L515.143 519.432L535.779 519.141C542.506 521.192 545.003 526.838 549.052 524.625C550.561 523.803 544.2 514.134 544.2 514.134L554.563 524.77L562.611 518.973Z" fill="#FFBC96"/>
<path d="M484.968 470.414L479.378 477.501L480.458 478.353L486.048 471.266L484.968 470.414Z" fill="#D28572"/>
<path d="M480.626 551.865L513.149 548.993C534.32 547.124 552.737 564.222 553.768 586.702L561.117 746.879L516.253 748.278L480.626 551.865Z" fill="#195FC7"/>
<path d="M519.86 746.682L521.236 790.928H587.716L554.936 763.646L552.871 742.328L519.86 746.682Z" fill="#1B1B43"/>
<path d="M554.095 762.559L540.109 773.332L541.791 775.512L555.774 764.739L554.095 762.559Z" fill="#EBEBFF"/>
<path d="M504.729 746.682L506.105 790.928H572.586L539.804 763.646L537.741 742.328L504.729 746.682Z" fill="#2A2A66"/>
<path d="M538.964 762.559L524.98 773.332L526.658 775.512L540.642 764.739L538.964 762.559Z" fill="#EBEBFF"/>
<path d="M554.249 751.04H499.227L460.011 630.38L454.524 613.49L376.12 613.145C371.279 613.076 366.644 610.836 362.71 607.52C354.375 600.493 350.536 589.447 352.05 578.648L358.927 529.584L475.404 544.728C486.179 546.13 496.249 550.848 504.217 558.233C512.186 565.618 517.659 575.301 519.873 585.938L554.249 751.04Z" fill="#0066FF"/>
<path d="M470.686 613.49L460.011 630.378L454.522 613.49H470.686Z" fill="#1B1B43"/>
<path d="M456.285 520.697C455.721 522.966 455.135 525.243 454.525 527.522L450.398 544.37L396.066 542.117L356.947 540.49C354.51 540.393 352.122 539.762 349.952 538.647C347.783 537.531 345.882 535.957 344.381 534.032C342.881 532.109 341.82 529.879 341.267 527.506C340.714 525.13 340.686 522.66 341.185 520.27L359.423 432.502C360.567 425.241 364.078 418.559 369.411 413.503C374.744 408.447 381.603 405.292 388.914 404.537L433.548 399.942L447.992 404.07C462.091 411.637 462.104 425.349 462.778 434.329C465.735 473.643 462.089 497.453 456.285 520.697Z" fill="#E4DAFF"/>
<g opacity="0.3">
<path d="M419.449 517.889C418.885 520.159 455.129 525.236 454.524 527.519L450.397 544.368L396.066 542.112C377.085 527.795 369.974 496.639 363.054 457.603L419.449 517.889Z" fill="#1B1B43"/>
</g>
<path d="M408.65 425.333C410.997 427.894 413.737 430.07 416.769 431.771C419.762 433.475 423.057 434.585 426.472 435.045C429.837 435.484 433.389 435.199 436.343 433.595C439.364 432.089 441.286 428.919 441.646 425.488L442.183 425.524C442.166 427.355 441.696 429.152 440.815 430.756C439.892 432.375 438.552 433.715 436.933 434.641C433.701 436.507 429.865 436.847 426.298 436.394C422.716 435.894 419.274 434.661 416.187 432.775C413.115 430.928 410.419 428.522 408.238 425.677L408.65 425.333Z" fill="#1B1B43"/>
<path d="M463.98 478.959L462.95 478.883C463.939 465.043 462.939 448.038 459.975 428.332L460.995 428.178C463.968 447.958 464.974 465.045 463.98 478.959Z" fill="#1B1B43"/>
<path d="M551.565 527.75H500.443V537.836H551.565V527.75Z" fill="#1B1B43"/>
<path d="M640.055 537.836H537.351L584.577 447.512H687.28L640.055 537.836Z" fill="#3D9BE9"/>
<path d="M433.123 327.706C422.939 314.219 399.761 315.854 397.204 335.636C371.758 338.504 366.449 365.183 374.292 380.411L382.698 382.338L386.043 372.579L389.476 383.508L413.068 388.538L433.123 327.706Z" fill="#1B1B43"/>
<path d="M446.582 374.516L441.075 412.009C441.025 412.35 440.964 412.674 440.888 412.998C440.475 414.807 439.67 416.507 438.532 417.972C437.393 419.438 435.946 420.636 434.293 421.484C432.64 422.332 430.823 422.809 428.968 422.878C427.112 422.95 425.262 422.614 423.551 421.892C418.29 419.68 413.922 415.767 411.14 410.783C408.358 405.8 407.322 400.031 408.197 394.388L412.056 369.445L446.582 374.516Z" fill="#FFBC96"/>
<path d="M444.199 390.727L441.073 412.008C441.023 412.349 440.962 412.677 440.887 412.997C431.099 409.877 421.209 396.564 420.236 383.509L444.199 390.727Z" fill="#1B1B43"/>
<path d="M466.464 380.275C465.511 383.222 464.359 386.099 463.016 388.889C458.625 397.959 452.09 405.065 442.67 402.278C420.527 395.715 411.363 370.568 411.363 370.568L429.434 355.149L441.868 342.712L471.016 360.728C470.055 367.361 468.533 373.901 466.464 380.275Z" fill="#FFBC96"/>
<path d="M418.93 365.591C428.903 366.734 437.322 362.802 442.694 348.923C442.694 348.923 462.898 372.281 475.804 363.284C486.612 355.755 473.518 332.85 447.21 326.486C437.604 324.21 427.489 325.741 418.988 330.76C404.543 339.219 399.769 363.125 410.623 373.234L418.93 365.591Z" fill="#1B1B43"/>
<path d="M411.002 338.707C410.697 336.267 411.562 333.739 412.937 331.656C414.35 329.566 416.235 327.836 418.438 326.606C420.621 325.364 423.058 324.631 425.563 324.467C428.04 324.264 430.518 324.825 432.667 326.074C430.453 326.42 428.273 326.95 426.149 327.659C424.18 328.328 422.277 329.179 420.465 330.198C418.659 331.207 416.962 332.397 415.399 333.752C413.722 335.205 412.243 336.869 411.002 338.707Z" fill="#F5F1FF"/>
<path d="M417.918 375.935C422.12 374.928 424.542 369.996 423.326 364.921C422.111 359.845 417.719 356.543 413.517 357.547C409.315 358.554 406.893 363.488 408.108 368.563C409.323 373.642 413.716 376.939 417.918 375.935Z" fill="#FFBC96"/>
<path d="M414.963 371.879C415.426 370.352 415.555 368.748 415.347 367.166C415.004 365.607 414.374 364.129 413.488 362.802L413.883 362.436C414.628 362.963 415.26 363.634 415.744 364.405C416.227 365.179 416.551 366.042 416.697 366.943C416.844 367.842 416.807 368.765 416.593 369.65C416.378 370.538 415.99 371.371 415.45 372.108L414.963 371.879Z" fill="#1B1B43"/>
<path d="M452.873 372.32C452.762 372.761 452.528 373.158 452.196 373.464C451.865 373.77 451.453 373.977 451.008 374.052C450.562 374.131 450.102 374.076 449.688 373.898C449.273 373.719 448.919 373.422 448.667 373.047C448.416 372.672 448.281 372.233 448.275 371.781C448.27 371.329 448.393 370.885 448.635 370.503C448.877 370.12 449.225 369.817 449.635 369.63C450.046 369.44 450.503 369.376 450.949 369.442C451.585 369.568 452.147 369.944 452.506 370.486C452.868 371.025 452.998 371.684 452.873 372.32Z" fill="#1B1B43"/>
<path d="M464.648 376.097C464.503 376.473 464.252 376.798 463.925 377.033C463.599 377.269 463.213 377.404 462.81 377.425C462.408 377.445 462.01 377.345 461.661 377.143C461.315 376.942 461.034 376.64 460.853 376.282C460.672 375.924 460.599 375.519 460.643 375.117C460.686 374.719 460.847 374.338 461.101 374.028C461.356 373.717 461.694 373.488 462.078 373.367C462.461 373.246 462.873 373.237 463.26 373.344C463.809 373.525 464.263 373.919 464.523 374.432C464.783 374.95 464.828 375.548 464.648 376.097Z" fill="#1B1B43"/>
<path d="M453.694 365.921C453.612 367.123 451.696 366.954 448.881 366.627C446.066 366.3 444.005 366.88 444.093 366.127C444.181 365.371 446.536 363.746 449.368 363.685C452.29 363.622 453.793 364.491 453.694 365.921Z" fill="#1B1B43"/>
<path d="M462.476 368.378C462.098 369.519 463.453 370.027 465.47 370.694C467.487 371.362 468.669 372.609 468.882 371.882C469.095 371.154 468.093 368.835 466.203 367.802C464.254 366.736 462.926 367.02 462.476 368.378Z" fill="#1B1B43"/>
<path d="M457.772 377.247C458.216 377.96 458.704 378.644 459.234 379.293L460.027 380.28C460.352 380.649 460.625 381.061 460.835 381.506C460.965 381.805 461.02 382.133 460.994 382.457C460.961 382.794 460.834 383.117 460.625 383.385C460.285 383.795 459.854 384.12 459.365 384.335C458.517 384.693 457.606 384.879 456.686 384.881L456.559 384.359C457.326 384.044 458.071 383.681 458.79 383.271C459.079 383.099 459.333 382.87 459.537 382.601C459.675 382.391 459.656 382.311 459.568 382.028C459.339 381.488 458.666 380.712 458.262 379.949C457.786 379.177 457.45 378.323 457.267 377.436L457.772 377.247Z" fill="#1B1B43"/>
<path d="M445.021 383.934C446.179 385.725 447.41 387.406 449.015 388.591C450.655 389.782 452.627 390.431 454.653 390.446L454.72 390.977C453.619 391.293 452.462 391.34 451.339 391.119C450.196 390.888 449.119 390.398 448.196 389.688C446.415 388.282 445.13 386.342 444.53 384.153L445.021 383.934Z" fill="#1B1B43"/>
<g opacity="0.2">
<path d="M437.072 381.289C440.173 381.745 443.057 379.601 443.512 376.5C443.968 373.399 441.822 370.513 438.722 370.058C435.621 369.602 432.736 371.75 432.281 374.85C431.825 377.951 433.971 380.834 437.072 381.289Z" fill="#F5F1FF"/>
</g>
<g opacity="0.2">
<path d="M466.463 380.275C465.509 383.221 464.359 386.099 463.016 388.889C462.52 388.126 462.215 387.253 462.126 386.35C462.036 385.446 462.168 384.531 462.505 383.687C462.843 382.843 463.38 382.09 464.068 381.498C464.757 380.906 465.578 380.483 466.463 380.275Z" fill="#F5F1FF"/>
</g>
<path d="M395.354 441.276L363.376 458.453L374.84 482.292L408.394 464.773L395.354 441.276Z" fill="#E4DAFF"/>
<path d="M534.53 522.465C533.574 524.605 525.288 521.306 521.419 519.637C524.424 521.114 529.623 524.054 527.469 525.912C525.737 527.387 521.608 524.626 508.291 519.857C510.315 520.692 522.252 525.669 519.415 527.918C516.327 530.355 502.342 526.003 502.342 526.003L490.744 532.989L477.006 533.664L427.591 536.405C424.5 536.567 421.402 536.332 418.371 535.702C412.385 534.446 406.755 531.87 401.888 528.164C398.831 525.833 396.122 523.079 393.843 519.981C392.126 517.65 390.634 515.157 389.388 512.542L374.832 482.299L408.388 464.773L428.088 500.259L487.792 510.191L504.077 505.26C507.578 504.193 512.665 505.444 515.878 507.201C523.717 511.484 535.421 520.426 534.53 522.465Z" fill="#FFBC96"/>
<g opacity="0.2">
<path d="M419.013 530.546C419.1 532.287 418.882 534.034 418.369 535.699C412.383 534.443 406.753 531.872 401.887 528.166C398.83 525.835 396.12 523.076 393.841 519.981C395.975 518.087 398.601 516.83 401.417 516.363C404.233 515.896 407.122 516.234 409.754 517.338C412.386 518.442 414.651 520.268 416.29 522.606C417.928 524.941 418.871 527.694 419.013 530.546Z" fill="#E4DAFF"/>
</g>
<path d="M487.696 509.936C491.72 508.354 495.833 507.006 500.011 505.899C502.113 505.333 504.252 504.919 506.414 504.664C507.516 504.544 508.626 504.519 509.733 504.588C510.291 504.671 510.846 504.788 511.403 504.89C511.936 505.05 512.459 505.236 512.988 505.408C517.098 507.036 520.724 509.467 524.244 511.983C527.762 514.517 531.1 517.256 534.354 520.124L534.505 520.256L534.543 520.43C534.702 521.064 534.618 521.731 534.308 522.307C534.127 522.59 533.881 522.827 533.594 523C533.34 523.175 533.053 523.289 532.75 523.344C531.718 523.521 530.661 523.469 529.651 523.19C527.778 522.706 525.956 522.044 524.208 521.215C522.481 520.398 520.779 519.544 519.123 518.616C517.441 517.728 515.836 516.72 514.193 515.768L514.862 514.572C517.763 516.077 520.574 517.746 523.285 519.574C524.688 520.492 525.979 521.568 527.137 522.78C527.451 523.133 527.712 523.525 527.912 523.952C528.033 524.214 528.103 524.498 528.117 524.783C528.119 525.124 528.012 525.458 527.811 525.739C527.463 526.16 526.987 526.457 526.455 526.584C526.026 526.705 525.586 526.789 525.142 526.84L525.009 526.86L524.858 526.805L509.639 521.288L510.033 520.218C512.445 521.157 514.785 522.275 517.031 523.562C518.131 524.27 519.284 524.905 520.131 526.178C520.252 526.371 520.332 526.587 520.364 526.811C520.397 527.037 520.382 527.266 520.319 527.488C520.167 527.899 519.866 528.239 519.477 528.44C518.85 528.77 518.156 528.96 517.447 529.001C514.777 529.192 512.237 528.692 509.715 528.197C507.198 527.662 504.721 527.009 502.264 526.254L502.419 525.738C504.868 526.429 507.357 527.019 509.856 527.486C512.345 527.92 514.907 528.335 517.35 528.095C518.516 527.992 519.885 527.41 519.279 526.668C518.699 525.792 517.554 525.08 516.505 524.455C514.294 523.229 511.994 522.169 509.627 521.285L510.023 520.215L525.29 525.595L525.007 525.561C525.368 525.521 525.724 525.451 526.074 525.351C526.334 525.299 526.573 525.171 526.76 524.983C526.966 524.887 526.646 524.164 526.151 523.635C525.06 522.513 523.847 521.518 522.532 520.668C519.862 518.885 517.091 517.261 514.236 515.795L514.906 514.596C516.535 515.533 518.122 516.548 519.777 517.428C521.41 518.354 523.081 519.2 524.764 520.005C526.425 520.802 528.158 521.441 529.94 521.917C530.751 522.148 531.602 522.203 532.437 522.083L532.7 522.024C532.768 521.991 532.835 521.954 532.897 521.911C533.053 521.858 533.095 521.729 533.199 521.645C533.328 521.371 533.364 521.067 533.304 520.771L533.491 521.077C530.304 518.229 526.964 515.513 523.531 512.956C520.092 510.429 516.515 507.984 512.618 506.387L511.14 505.88C510.638 505.788 510.141 505.671 509.636 505.586C508.593 505.511 507.548 505.523 506.507 505.623C504.384 505.834 502.279 506.195 500.207 506.701C496.033 507.711 491.922 508.957 487.892 510.437L487.696 509.936Z" fill="#D28572"/>
<path d="M375.072 482.759L374.595 481.841L407.705 464.549L391.974 432.221L392.9 431.77L409.07 465.001L375.072 482.759Z" fill="#1B1B43"/>
<path d="M378.397 627.245H376.596V782.218H378.397V627.245Z" fill="#1B1B43"/>
<path d="M420.823 612.803H334.169C328.281 612.803 323.507 617.577 323.507 623.463C323.507 629.352 328.281 634.123 334.169 634.123H420.823C426.711 634.123 431.485 629.352 431.485 623.463C431.485 617.577 426.711 612.803 420.823 612.803Z" fill="#E2E100"/>
<path d="M357.075 774.513H397.918C402.168 774.513 406.245 776.204 409.252 779.209C412.258 782.216 413.947 786.292 413.947 790.544V792.304H341.046V790.544C341.046 788.437 341.46 786.354 342.266 784.409C343.071 782.464 344.252 780.698 345.741 779.209C347.23 777.719 348.996 776.54 350.941 775.737C352.886 774.93 354.971 774.513 357.075 774.513Z" fill="#E2E100"/>
<path d="M482.337 547.302L480.815 548.262L634.41 791.725L635.932 790.765L482.337 547.302Z" fill="#1B1B43"/>
<path d="M634.442 547.322L480.785 790.746L482.307 791.705L635.962 548.282L634.442 547.322Z" fill="#1B1B43"/>
<path d="M692.944 537.838H423.803V558.135H692.944V537.838Z" fill="#E4DAFF"/>
<path d="M326.848 343.733L316.387 329.286H294.516C291.955 329.283 289.502 328.266 287.691 326.455C285.881 324.645 284.864 322.191 284.861 319.631V288.557C284.864 285.996 285.881 283.543 287.691 281.732C289.502 279.922 291.955 278.905 294.516 278.902H325.59C328.15 278.905 330.604 279.922 332.414 281.732C334.225 283.543 335.242 285.996 335.245 288.557V319.631C335.237 321.972 334.381 324.228 332.837 325.986C331.294 327.744 329.167 328.882 326.848 329.194V343.733ZM294.516 280.102C292.274 280.104 290.124 280.994 288.539 282.58C286.955 284.165 286.063 286.315 286.06 288.557V319.631C286.063 321.873 286.955 324.023 288.539 325.607C290.124 327.192 292.274 328.084 294.516 328.087H316.998L325.648 340.031V328.095L326.204 328.054C328.331 327.894 330.32 326.939 331.773 325.378C333.226 323.817 334.038 321.765 334.046 319.631V288.557C334.044 286.315 333.152 284.165 331.566 282.58C329.982 280.994 327.832 280.104 325.59 280.102H294.516Z" fill="#9192FF"/>
<path d="M1010.53 790.503H273.264V792.304H1010.53V790.503Z" fill="#1B1B43"/>
</g>
</g>
<defs>
<filter id="filter0_d_807_189" x="-18.7151" y="-506.138" width="1668.5" height="1447.49" filterUnits="userSpaceOnUse" color-interpolation-filters="sRGB">
<feFlood flood-opacity="0" result="BackgroundImageFix"/>
<feColorMatrix in="SourceAlpha" type="matrix" values="0 0 0 0 0 0 0 0 0 0 0 0 0 0 0 0 0 0 127 0" result="hardAlpha"/>
<feOffset dy="4"/>
<feGaussianBlur stdDeviation="50"/>
<feComposite in2="hardAlpha" operator="out"/>
<feColorMatrix type="matrix" values="0 0 0 0 0.8 0 0 0 0 0.8 0 0 0 0 0.8 0 0 0 0.25 0"/>
<feBlend mode="normal" in2="BackgroundImageFix" result="effect1_dropShadow_807_189"/>
<feBlend mode="normal" in="SourceGraphic" in2="effect1_dropShadow_807_189" result="shape"/>
</filter>
<filter id="filter1_d_807_189" x="45.361" y="-429.971" width="1540.47" height="1323.37" filterUnits="userSpaceOnUse" color-interpolation-filters="sRGB">
<feFlood flood-opacity="0" result="BackgroundImageFix"/>
<feColorMatrix in="SourceAlpha" type="matrix" values="0 0 0 0 0 0 0 0 0 0 0 0 0 0 0 0 0 0 127 0" result="hardAlpha"/>
<feOffset dy="4"/>
<feGaussianBlur stdDeviation="50"/>
<feComposite in2="hardAlpha" operator="out"/>
<feColorMatrix type="matrix" values="0 0 0 0 0.8 0 0 0 0 0.8 0 0 0 0 0.8 0 0 0 0.25 0"/>
<feBlend mode="normal" in2="BackgroundImageFix" result="effect1_dropShadow_807_189"/>
<feBlend mode="normal" in="SourceGraphic" in2="effect1_dropShadow_807_189" result="shape"/>
</filter>
<linearGradient id="paint0_linear_807_189" x1="-28.6731" y1="211.812" x2="1514.31" y2="425.518" gradientUnits="userSpaceOnUse">
<stop stop-color="#FAB2FF"/>
<stop offset="1" stop-color="#1904E5"/>
</linearGradient>
<linearGradient id="paint1_linear_807_189" x1="63.2266" y1="-110.674" x2="1381.3" y2="719.47" gradientUnits="userSpaceOnUse">
<stop stop-color="#FAB2FF"/>
<stop offset="1" stop-color="#1904E5"/>
</linearGradient>
<clipPath id="clip0_807_189">
<rect width="1147" height="901" fill="white"/>
</clipPath>
<clipPath id="clip1_807_189">
<rect width="820" height="820" fill="white" transform="translate(231.376 -27.0854)"/>
</clipPath>
</defs>
</svg>
